<?xml version="1.0" encoding="UTF-8"?>
<svg version="1.1" viewBox="0 0 1600 1600" width="1280" height="1280" xmlns="http://www.w3.org/2000/svg">
<path transform="translate(0)" d="m0 0h1600v1600h-1600v-1600z" fill="#FDFDFD"/>
<path transform="translate(914 194)" d="m0 0c3.06 0.879 6.14 1.66 9.22 2.46 1.88 0.508 3.76 1.02 5.63 1.53 1.57 0.428 3.14 0.852 4.71 1.27 51.5 13.9 103 39.7 144 74.9 2.48 2.14 5 4.16 7.61 6.15 4.59 3.53 9.21 7.15 13.2 11.3v2c0.536 0.227 1.07 0.454 1.62 0.688 5.56 3.07 9.52 7.44 13.6 12.2 2.62 2.98 5.44 5.73 8.28 8.5 6.5 6.35 12.7 12.7 18.4 19.8 2.26 2.84 4.61 5.59 6.98 8.35 9.43 11.3 17.6 23.5 25 36.3 1.33 2.31 2.69 4.6 4.05 6.89 6.94 11.8 13.1 23.9 18.9 36.4 0.92 1.99 1.85 3.97 2.79 5.95 3.56 7.57 6.67 15.2 9.52 23.1 0.429 1.17 0.857 2.34 1.3 3.55 9.86 27.1 9.86 27.1 11.2 36.5 0.472 2.79 1.13 5.46 1.85 8.19 1.71 6.73 2.98 13.5 4.17 20.4 0.218 1.24 0.435 2.47 0.659 3.75 1.47 8.46 2.82 16.9 3.78 25.4 0.0888 0.767 0.178 1.53 0.269 2.32 0.292 2.54 0.576 5.08 0.856 7.61 0.0879 0.782 0.176 1.56 0.266 2.37 0.395 3.73 0.647 7.38 0.601 11.1-0.257 3.4-0.257 3.4 1.01 5.56 0.0951 1.58 0.128 3.16 0.129 4.74 0.00473 1.48 0.00473 1.48 0.00955 2.98-0.00202 1.07-0.00405 2.14-0.00613 3.24 9.57e-4 1.1 0.00191 2.19 0.0029 3.32 6.82e-4 2.32-0.00117 4.64-0.00534 6.96-0.00533 3.55-6.21e-5 7.1 0.00635 10.6-6.61e-4 2.25-0.00194 4.51-0.00391 6.76 0.00202 1.06 0.00405 2.12 0.00613 3.22-0.00315 0.994-0.0063 1.99-0.00955 3.01-0.00119 1.31-0.00119 1.31-0.00241 2.64-0.132 2.58-0.603 4.96-1.13 7.49 0.0206 0.908 0.0412 1.82 0.0625 2.75-0.0542 2.82-0.398 4.92-1.06 7.62-0.868 3.61-1.05 6.84-0.947 10.6-0.0575 2.23-0.424 4.21-0.901 6.39-1.41 6.75-2.48 13.5-3.59 20.4-6.64 40.2-20 76.6-39.6 112-0.398 0.728-0.795 1.46-1.2 2.21-4.64 8.46-9.48 16.7-14.8 24.8-0.87 1.35-1.74 2.7-2.61 4.04-10.2 15.7-21.6 30.3-34 44.3-0.974 1.11-1.94 2.24-2.89 3.37-5.13 6.02-10.7 11.6-16.3 17.2-1.66 1.66-3.32 3.32-4.98 4.99-5.58 5.58-11.2 11-17.2 16.1-1.17 1.03-2.34 2.07-3.5 3.11-33.4 29.5-73.7 55.7-116 70.6-3.29 1.18-6.48 2.49-9.69 3.86-11.9 5.07-24.2 9.47-36.8 12.3-7 1.69-13.6 4.89-20.2 7.66-1.08 0.442-2.15 0.884-3.26 1.34-0.97 0.406-1.94 0.812-2.94 1.23-2.78 0.899-4.84 1.14-7.74 0.886-1.92-1.92-1.17-5.33-1.19-7.88 0.0359-16.6 1.93-32.9 7.97-48.5 2.94-7.71 5.41-15.5 7.8-23.4 3.54-11.6 7.22-23.2 11.5-34.6 0.35-1.01 0.701-2.01 1.06-3.05 2.94-7.53 6.78-10.1 13.9-13.6 2.13-1.19 4.26-2.38 6.39-3.59 2.29-1.26 4.57-2.53 6.86-3.79 1.21-0.673 2.43-1.35 3.64-2.02 4.77-2.65 9.53-5.29 14.3-7.9 20.1-11.1 38-25.4 55.3-40.4 1.2-1.04 2.41-2.07 3.63-3.09 4.55-3.85 8.79-8 13-12.2 0.595-0.582 1.19-1.16 1.8-1.76 3.34-3.34 6.16-6.72 8.82-10.6 1.8-2.46 4.01-4.49 6.19-6.62 12-14.2 21.9-29.8 31-46 0.407-0.716 0.814-1.43 1.23-2.17 23.1-41 33.5-85.3 33.1-132-0.00598-1.61-0.00598-1.61-0.0121-3.25-0.148-34.3-1.85-68.3-14.4-100-0.423-1.1-0.845-2.2-1.28-3.34-3.17-8.25-6.42-16.5-9.72-24.7-0.487-1.22-0.487-1.22-0.984-2.47-8.14-20.3-20-40.7-34-57.5-0.411-0.494-0.821-0.988-1.24-1.5-6.38-7.65-13-15-19.9-22.3-2.75-2.91-5.43-5.84-7.99-8.92-2.43-2.86-4.99-5.2-7.96-7.51-4.29-3.42-8.33-6.99-12.3-10.8-36.9-34.5-87-56.2-136-64.6-2.5-0.448-4.97-0.953-7.46-1.47-4.29-0.867-8.55-1.48-12.9-1.96-1.09-0.138-1.09-0.138-2.2-0.278-46.2-5.77-98 2.01-141 20.3-0.865 0.365-1.73 0.731-2.62 1.11-3.05 1.29-6.09 2.59-9.13 3.89-0.971 0.415-1.94 0.831-2.94 1.26-5.2 2.26-10.2 4.69-15.1 7.51-2.23 1.26-4.48 2.43-6.76 3.59-8.56 4.37-16.7 8.87-24.5 14.5-2.84 2.05-5.75 3.93-8.71 5.82-22.4 14.9-41.3 34-56.9 55.7-1.93 2.67-3.88 5.29-5.96 7.84-7.79 9.56-13.7 20.1-19.7 30.9-1.42 2.5-2.86 4.97-4.33 7.44-10.2 17.4-19.2 36.7-23.3 56.4-0.369 1.4-0.744 2.79-1.12 4.19-0.742 3.23-1.3 6.41-1.81 9.69-0.586 3.66-1.29 7.1-2.44 10.6-1.65 5.17-2.73 10.4-3.81 15.8-0.269 1.3-0.269 1.3-0.542 2.62-0.887 4.47-1.36 8.56-1.27 13.1-0.33 0.66-0.66 1.32-1 2-0.0456 2.17-0.0383 4.33 0 6.5 0.111 6.28 0.111 6.28-1 8.5-0.0963 1.7-0.131 3.41-0.133 5.12-0.00129 1.02-0.00258 2.04-0.00391 3.08 0.00387 1.07 0.00773 2.13 0.0117 3.23-0.00387 1.06-0.00773 2.13-0.0117 3.22 0.00129 1.02 0.00258 2.04 0.00391 3.09 0.00169 1.4 0.00169 1.4 0.00342 2.83 0.0298 2.56 0.0298 2.56 1.13 5.42-0.0223 1.97-0.0833 3.94-0.164 5.91-0.0626 9.76 1.88 19.1 3.79 28.6 0.182 0.931 0.364 1.86 0.552 2.82 2.69 13.7 5.54 27.3 9.82 40.7 0.256 0.808 0.511 1.62 0.775 2.45 12.5 38.9 32.5 74 60.1 104 1.82 2 3.57 4.04 5.32 6.1 7.91 9.05 16.5 17.6 26 25 2.68 2.12 5.31 4.3 7.93 6.5 5.52 4.52 11.2 8.6 17.2 12.5 1.03 0.686 2.07 1.37 3.13 2.08 42 27.5 89 40.4 138 51.1-0.389-16.1-0.884-32.1-1.94-48.1-0.0746-1.21-0.149-2.41-0.226-3.66-0.118-1.69-0.118-1.69-0.239-3.41-0.1-1.47-0.1-1.47-0.203-2.97-0.63-4.52-1.86-8.04-4.39-11.8-1.96-0.807-1.96-0.807-4.26-1.25-1.3-0.293-1.3-0.293-2.62-0.592-0.926-0.198-1.85-0.395-2.81-0.599-1.92-0.432-3.84-0.866-5.76-1.3-0.946-0.212-1.89-0.424-2.87-0.643-4.82-1.11-9.58-2.42-14.4-3.73-2.11-0.561-4.23-1.08-6.36-1.55-8.87-1.96-16.8-5.43-25-9.33-0.623-0.295-1.25-0.59-1.89-0.894-10.4-5.02-19.6-11.5-28.9-18.4-2.19-1.65-4.41-3.27-6.62-4.9-10.2-7.58-19.5-15.9-28.6-24.8-0.631-0.611-1.26-1.22-1.91-1.85-7.57-7.33-14.7-14.8-21.1-23.1-0.51-0.645-1.02-1.29-1.55-1.95-14.2-17.9-24.3-37.4-31.5-59-0.303-0.902-0.606-1.8-0.917-2.73-9.43-28.1-11.7-54.7-11.1-84.3 0.0193-0.967 0.0387-1.93 0.0586-2.93 0.986-40.7 11.2-82.1 35.9-115 1.31-1.83 2.63-3.67 3.94-5.5 5.94-8.13 12.2-15.8 19-23.2 1.65-1.82 3.23-3.66 4.79-5.57 14.8-17.6 34.1-31.5 53.5-43.6 1.5-0.938 3-1.89 4.48-2.85 13.8-8.66 28.9-14.3 44.3-19.3 0.738-0.244 1.48-0.488 2.23-0.739 1.06-0.348 1.06-0.348 2.14-0.703 0.607-0.199 1.21-0.398 1.84-0.604 17.4-5.22 34.4-6.44 52.5-6.27 2.05 0.0107 4.09 0.0213 6.14 0.032 13.8 0.104 27.5 0.494 41.2 2.28 0.801 0.0965 1.6 0.193 2.43 0.292 9.91 1.23 18.9 3.58 28.2 7.11 3.79 1.43 7.61 2.61 11.5 3.75 9.17 2.73 17.5 6.25 25.9 10.8 2.04 1.09 4.1 2.12 6.17 3.15 17.7 8.88 33.3 20.8 47.8 34.1 1.91 1.83 1.91 1.83 4.03 2.79v2c0.536 0.206 1.07 0.413 1.62 0.625 3.29 1.91 5.97 4.42 8.38 7.38v2h2c3.29 3.41 6.11 7.25 9 11 0.495 0.638 0.99 1.28 1.5 1.93 12 15.6 20.9 32.6 29.5 50.3 0.445 0.919 0.89 1.84 1.35 2.79 3.78 7.98 7.17 16.2 9.15 24.8 1.09 4.57 2.26 9.1 3.5 13.6 10.3 38.6 7.32 77.2-3.1 115-0.718 2.7-1.38 5.38-1.96 8.11-7.21 33.4-28.5 64-51.9 88.3-0.6 0.622-1.2 1.24-1.82 1.89-7.67 7.91-15.5 15.3-24.2 22.1-1.08 0.865-2.15 1.73-3.23 2.6-13.6 11-27.7 20.6-43.4 28.3-1.49 0.729-2.97 1.47-4.44 2.23-15 7.68-31.5 10.5-48 13.7-4.4 0.871-8.66 1.96-12.9 3.24-1.69 7.42-2.57 14.7-3.1 22.3-0.125 1.81-0.125 1.81-0.253 3.65-1.03 16.3-1.09 32.5-1.09 48.8-3.22e-4 0.835-6.45e-4 1.67-9.77e-4 2.53-0.00421 44.1 3.31 87.2 12.3 130 1.14 5.48 2.22 11 3.29 16.5 3.47 17.7 7.21 35.2 11.7 52.7 0.187 0.737 0.374 1.47 0.567 2.23 0.528 2.07 1.07 4.13 1.61 6.2 0.304 1.15 0.608 2.31 0.921 3.5 2.29 7.14 4.66 10.2 11.1 13.8 4.97 2.32 10.1 3.67 15.4 4.98 1.15 0.302 2.3 0.603 3.49 0.914 4.86 1.26 9.7 2.46 14.7 3.3 26.2 4.5 58.7 20.7 74.4 42.4 7.96 12.3 8.23 25.3 5.81 39.5-1.46 6.58-3.55 11.1-7.88 16.2-0.638 0.808-1.28 1.62-1.93 2.45-9.06 10.9-20.9 17.2-33.1 23.9-1.09 0.599-2.18 1.2-3.3 1.82-9.88 5.29-20 8.64-30.8 11.2-0.833 0.203-1.67 0.406-2.52 0.615-1.8 0.438-3.61 0.874-5.41 1.31-3.05 0.743-6.09 1.51-9.13 2.28-2.15 0.536-4.29 1.07-6.44 1.61-0.972 0.25-1.94 0.5-2.94 0.757-15.4 3.78-31.1 4.49-46.9 5.18-0.921 0.042-1.84 0.0841-2.79 0.127-14.6 0.661-29.1 1.1-43.7 0.748-1.08-0.0247-2.16-0.0493-3.28-0.0747-7.91-0.198-15.8-0.524-23.7-0.925l-2.89-0.131c-44.6-2.17-98.8-15.2-130-49-9.04-11.4-12-23.5-11-37.9 2.19-13.6 10.2-25.1 21-33.2 10.7-7.64 22.5-13.4 34.2-19.3 1.76-0.895 3.51-1.82 5.23-2.79 7.89-4.34 16.4-6.14 25.1-8.23 11.9-2.86 11.9-2.86 23.7-6.21 0.781-0.238 1.56-0.477 2.37-0.722 6.25-3.79 9.57-8.67 11.4-15.7 0.536-2.42 1.05-4.85 1.53-7.28 0.283-1.32 0.568-2.65 0.856-3.97 0.756-3.52 1.48-7.04 2.2-10.6 0.746-3.64 1.52-7.27 2.29-10.9 1.76-8.35 3.46-16.7 5.16-25.1 0.44-2.16 0.879-4.31 1.32-6.47 1.04-5.13 2.06-10.3 3.06-15.4 0.143-0.73 0.286-1.46 0.434-2.21 1.49-7.67 2.63-15.1 2.19-22.9-0.66 0.33-1.32 0.66-2 1-26.7 1.96-54.5-10.7-79.6-18.9-2.88-0.943-5.77-1.88-8.65-2.81-41.2-13.4-78-32.1-113-57.9-2.54-1.87-5.12-3.68-7.69-5.51-5.76-4.19-11.1-8.8-16.5-13.5-1.59-1.36-3.21-2.69-4.83-4.02-7.84-6.47-15.1-13.5-22.3-20.7-0.473-0.472-0.945-0.944-1.43-1.43-5.6-5.6-11-11.3-16.1-17.3-0.949-1.08-1.9-2.17-2.85-3.25-7.8-8.94-15.1-18.2-22.1-27.8-0.446-0.592-0.892-1.18-1.35-1.8-34.4-45.9-59.9-104-69.6-160l-0.455-2.53c-11.5-64.7-7.68-136 11.5-198l1.08-3.56c17.3-56.5 48-109 87.8-153 1.95-2.15 3.86-4.33 5.75-6.53 5.05-5.78 10.5-10.9 16.3-15.9 2.23-2 4.31-4.1 6.4-6.25 9.74-9.8 21.1-17.7 32.2-25.8 2.4-1.75 4.79-3.51 7.17-5.28 8.48-6.24 17-12 26.2-17.3 2.73-1.62 5.4-3.31 8.09-5 7.41-4.6 15.1-8.66 22.9-12.6 0.718-0.369 1.44-0.738 2.18-1.12 36.2-18.5 77.3-33.2 118-37.5 1.18-0.126 2.36-0.251 3.58-0.381 9.46-0.991 18.9-1.84 28.4-2.62 1.36-0.112 1.36-0.112 2.75-0.227 40.9-3.21 84.7-1.86 124 9.64z" fill="#00613A"/>
<path transform="translate(978 1029)" d="m0 0c4.77 5.34 8.95 11.2 12.7 17.3 5.73 7.76 14.7 9.94 23.5 12.8 1.31 0.441 2.63 0.883 3.94 1.33 3.49 1.18 6.99 2.33 10.5 3.49 0.963 0.355 1.93 0.71 2.92 1.08 6.93 2.08 14.2 2.17 21.4 2.46 0.994 0.0415 1.99 0.0831 3.01 0.126 11.2 0.441 22.4 0.62 33.6 0.788 6.13 0.0938 12.3 0.204 18.4 0.313 2.38 0.042 4.75 0.084 7.13 0.126 1.12 0.0199 2.24 0.0397 3.39 0.0602 2.91 0.0511 5.82 0.1 8.74 0.149 4.42 0.0758 8.84 0.176 13.3 0.282 1.85 0.028 1.85 0.028 3.75 0.0566 1.1 0.0303 2.2 0.0606 3.34 0.0918 0.927 0.0198 1.85 0.0396 2.81 0.0601 2.76 0.501 3.65 1.17 5.3 3.42 0.268 1.13 0.536 2.27 0.812 3.44 1.43 4.28 3.33 5.59 7.19 7.56 3.72 1.43 7.54 2.52 11.4 3.62 5.26 1.62 8.72 3.46 12.6 7.38 0.247 0.949 0.495 1.9 0.75 2.88 1.78 4.45 4.95 5.94 8.94 8.41 2.39 1.77 3.26 2.97 4.31 5.71-4.02 3.5-10.4 9-16 9-0.399 4.78-0.528 8.59 1.94 12.8 2.04 3.53 2.34 6.31 2.5 10.4 0.219 5.05 0.219 5.05 3.06 9 0.825 0.598 1.65 1.2 2.5 1.81 0.33 0.33 0.66 0.66 1 1 1.67 0.155 1.67 0.155 3.38 0.312 3.62 0.688 3.62 0.688 5.56 2.44 1.23 2.6 1.3 4.4 1.06 7.25 1.2 0.0825 2.39 0.165 3.62 0.25 4.31 0.517 6.81 2.27 10.4 4.75 4.8 1.12 9.48 1.12 14.4 1.06 1.1-0.00677 1.1-0.00677 2.23-0.0137 1.8-0.0117 3.6-0.0296 5.39-0.0488 0.33 0.99 0.66 1.98 1 3 1.93 0.88 1.93 0.88 4.25 1.44 3.98 1.2 6.71 2.63 9.75 5.56v1c1.08 0.11 2.15 0.219 3.26 0.332 9.08 0.967 17.9 2.19 26.7 4.67 0.917 0.241 1.83 0.482 2.78 0.73 6.06 1.94 9.32 4.78 12.7 10.2 3.46 7.04 5.44 14.6 7.29 22.2 1.46 5.96 3.54 10.6 6.93 15.7 2.58 4.33 2.4 8.22 2.3 13.2-2.85 1.43-5.19 0.94-8.38 0.812-12.7-0.232-25.6 2.63-37.3 7.32-2.93 1.11-5.85 1.75-8.92 2.38-3.85 0.796-7.65 1.74-11.4 2.73-1.82 0.473-3.65 0.914-5.48 1.3-3.46 0.867-5.72 1.52-7.95 4.4-0.933 1.56-1.85 3.13-2.76 4.71-2.71 3.65-6.31 5.48-10.2 7.64-4.52 3.09-5.98 7.31-7.14 12.5-1.46 9.1-0.591 19.2 4.46 27 2.45 3.36 5.2 6.23 8.19 9.12 1.94 2.82 2.01 4.29 2.16 7.82 0.436 3.62 0.762 4.1 3.53 6.86 1.13 0.792 2.27 1.56 3.43 2.31 1.19 0.843 2.38 1.69 3.57 2.55 0.573 0.412 1.15 0.824 1.73 1.25 5.33 4.08 8.92 9.67 12.6 15.2 0.742 0.681 1.49 1.36 2.25 2.06 1.75 1.94 1.75 1.94 2 4.69-0.0825 0.743-0.165 1.49-0.25 2.25-0.534 0.231-1.07 0.461-1.62 0.699-8.72 3.82-16.8 7.75-24.6 13.4-3.29 2.26-6.69 4.25-10.1 6.25-4.87 2.85-9.3 5.86-13.7 9.44-9.13 7.38-19.7 12.7-30 18.2-0.875 0.494-1.75 0.988-2.65 1.5-5.47 2.97-9.12 4.36-15.3 3.5-2.81-0.919-5.37-2.15-8-3.5-0.736-0.359-1.47-0.719-2.23-1.09-3.6-1.77-7.16-3.61-10.7-5.51-14.7-7.82-30.3-12.8-47.1-12.9-1.47-0.0367-2.94-0.0746-4.41-0.113-10.4-0.204-20.6 0.504-31 1.8-2.8 0.34-5.6 0.642-8.4 0.941-46.9 5.18-94.5 22.9-126 59.5-1.77 2-3.65 3.82-5.57 5.66-4.67 4.61-8.36 9.79-12.1 15.2-0.521 0.726-1.04 1.45-1.58 2.2-0.449 0.656-0.897 1.31-1.36 1.99-0.57 0.826-0.57 0.826-1.15 1.67-0.93 2.19-1.2 3.92-1.47 6.28-0.146 1.28-0.292 2.55-0.443 3.87-21.6 0.0563-43.1 0.067-64.7 0.0233-10-0.0192-20-0.0234-30 0.00742-8.72 0.0269-17.4 0.0257-26.2-0.00902-4.62-0.0174-9.24-0.0208-13.9 0.0093-4.35 0.0279-8.69 0.0184-13-0.0198-1.6-0.00742-3.19-0.00117-4.79 0.0198-12.1 0.147-12.1 0.147-15.5-2.78-1.32-2.06-2.18-3.94-2.97-6.25-0.478-0.901-0.956-1.8-1.45-2.73-0.409-0.811-0.817-1.62-1.24-2.46-10.8-19.7-30-39.3-49.3-50.8-0.67-0.417-1.34-0.834-2.03-1.26-10.8-6.64-22.1-11.6-33.8-16.2-0.648-0.251-1.3-0.503-1.96-0.762-41.1-15.8-85.3-22.5-128-10.8-1.03 0.251-2.06 0.503-3.12 0.762-12 3.21-24 9.25-34.5 15.9-3.37 1.91-5.58 1.79-9.41 1.37-2.64-1.04-4.96-2.1-7.44-3.44-1.03-0.541-1.03-0.541-2.09-1.09-2.17-1.14-4.32-2.3-6.47-3.47-1.02-0.537-1.02-0.537-2.06-1.08-8.13-4.29-15.6-9-23-14.6-9.48-7.11-19.8-13-29.9-19.1-2.9-1.76-5.79-3.52-8.68-5.28-0.895-0.536-1.79-1.07-2.71-1.62-0.83-0.507-1.66-1.01-2.52-1.54-0.73-0.441-1.46-0.882-2.21-1.34-2.12-1.58-3.45-3.26-4.94-5.44 4.08-4.73 8.23-9.39 12.4-14 0.715-0.787 0.715-0.787 1.44-1.59 2.57-2.81 5.22-5.43 8.06-7.97 6.1-5.97 10.2-13.8 14.6-21.1 1.49-2.35 1.49-2.35 3.14-4.59 4.21-5.7 5.43-10.2 5.59-17.3 0.0296-0.928 0.0591-1.86 0.0896-2.81 0.0342-5.96-0.402-10.3-4.46-14.9-0.928-0.874-0.928-0.874-1.88-1.77-0.639-0.665-1.28-1.33-1.94-2.02-1.33-1.36-2.69-2.7-4.07-4.01-1.96-1.94-3.56-3.98-5.24-6.16-7.22-8.27-20.2-10.3-30.4-12.9-2.49-0.668-4.98-1.34-7.48-2.01-1.76-0.472-1.76-0.472-3.55-0.954-13-3.54-13-3.54-14.3-4.91-1.76-0.146-3.52-0.227-5.28-0.281-1.61-0.0561-1.61-0.0561-3.24-0.113-1.13-0.0348-2.25-0.0696-3.42-0.105-2.22-0.0687-4.44-0.141-6.65-0.219-0.989-0.0303-1.98-0.0606-3-0.0918-2.41-0.189-2.41-0.189-4.41-1.19-0.321-5.34 0.391-8.36 3-13 2.93-6.32 4.79-12.8 6.66-19.5 1.41-4.87 3.09-9.25 5.46-13.7 1.42-2.8 2.16-5.73 2.97-8.75 1.19-2.61 2.48-3.45 4.91-4.98 2.7-0.768 2.7-0.768 5.75-1.32 1.1-0.207 2.2-0.414 3.34-0.627 1.15-0.204 2.29-0.409 3.47-0.619 2.27-0.412 4.55-0.83 6.82-1.25 1.01-0.18 2.01-0.36 3.05-0.545 2.79-0.538 2.79-0.538 5.57-2.64 2.38 0.312 2.38 0.312 5 1 0.928 0.186 1.86 0.371 2.81 0.562l2.19 0.438c0.0412-0.763 0.0825-1.53 0.125-2.31 0.875-2.69 0.875-2.69 3.75-4.19 1.03-0.495 2.06-0.99 3.12-1.5 1.01-1.66 2.01-3.33 3-5h4v2h2v2c7.08-1.4 14.1-2.92 21.1-4.88 1.02-0.286 2.04-0.572 3.1-0.867 3.42-1.51 5.22-3.61 7.84-6.26 3.34-1.84 3.34-1.84 6.94-3.5 5.09-2.35 9.13-4.54 13.1-8.5 0.991-2.85 0.991-2.85 1.12-5.88 0.454-3.86 0.866-6.67 3-9.94 2.25-3.83 2.68-5.82 1.88-10.2-3.88-4.19-8.79-6.76-13.7-9.57-2.14-1.35-3.74-2.42-5.27-4.43v-4c2.11-1.62 4.09-2.93 6.38-4.25 4.37-2.65 8.37-5.26 12.2-8.69 5.65-4.75 12.3-7.49 19-10.4 6.89-3.06 10.2-5.98 14.1-12.5 1.31-2.19 1.31-2.19 3.31-3.19 1.37-0.0875 2.75-0.113 4.13-0.107 0.865 0.00152 1.73 0.00303 2.62 0.00459 1.43 0.0101 1.43 0.0101 2.88 0.0204 1 0.00307 2 0.00613 3.03 0.00929 2.18 0.00717 4.36 0.0166 6.54 0.0279 3.46 0.0174 6.92 0.0277 10.4 0.0359 9.84 0.0245 19.7 0.0597 29.5 0.105 6.02 0.027 12 0.0439 18.1 0.0549 2.28 0.00617 4.57 0.0161 6.85 0.0301 23.9 0.34 23.9 0.34 46.6-6.37 1.34-0.604 1.34-0.604 2.7-1.22 2.57-1.17 5.12-2.38 7.67-3.59 0.68-0.311 1.36-0.623 2.06-0.943 12.6-5.8 19.4-14.6 26.2-26.3 3.28-5.29 3.28-5.29 6.65-6.45 6.7-1.13 13.4-1.83 20.2-2.46 1.39-0.132 1.39-0.132 2.82-0.266 15.6-1.37 15.6-1.37 22.9 0.766 0.905 0.255 1.81 0.51 2.74 0.773 2.38 0.852 2.38 0.852 5.38 2.85v2c0.99 0.33 1.98 0.66 3 1 5.86 6.81 9.57 13.7 9.24 22.9-1.5 13.1-11.6 22.9-20.2 32.1-0.531 0.572-1.06 1.14-1.61 1.73-1.08 1.13-2.23 2.21-3.39 3.27h-2c-0.33 0.99-0.66 1.98-1 3-1.65 1.41-1.65 1.41-3.8 2.86-0.795 0.541-1.59 1.08-2.41 1.64-1.26 0.838-1.26 0.838-2.54 1.69-0.793 0.539-1.59 1.08-2.4 1.63-10.7 7.21-21.4 13.7-33.2 19.1-1.94 0.881-3.88 1.77-5.81 2.67-6.25 2.88-12.5 5.72-18.8 8.55-47.9 21.5-47.9 21.5-78.4 62.4-3.96 12.7-5.37 29.2 0.371 41.5 0.452 0.998 0.905 2 1.37 3.02 13.8 27.8 41.1 41.6 67.6 55 0.759 0.384 1.52 0.769 2.3 1.16 26.9 13.5 56.3 22.4 85.7 28.8 1.27 0.283 2.54 0.565 3.85 0.856 24.5 6.04 24.5 6.04 49.4 8.05 2.76 0.0898 2.76 0.0898 5.76 2.09 2.11 0.136 4.14-0.00116 6.26-0.125 2.49 0.113 4.5 0.502 6.91 1.09 5.01 1.17 9.89 1.48 15 1.66 0.844 0.0387 1.69 0.0773 2.56 0.117 37.7 1.58 74.5-3.56 111-11.1 1.69-0.339 1.69-0.339 3.42-0.686 14.1-2.85 27.7-6.33 41.3-11.2 1.98-0.713 3.98-1.4 5.97-2.09 22.1-7.64 43.7-16.8 63.2-29.7 0.69-0.453 1.38-0.906 2.09-1.37 2.19-1.45 4.36-2.91 6.53-4.38 0.664-0.448 1.33-0.896 2.01-1.36 3.85-2.66 7.1-5.5 10.4-8.89 1.54-1.32 3.08-2.63 4.62-3.94 13-11.7 24.4-27.1 26.2-44.8 0.785-14.8-4.18-28.5-12.9-40.3-0.552-0.791-1.1-1.58-1.67-2.4-18.7-25.3-53.8-36.8-81.3-49.7-3.39-1.58-6.79-3.16-10.2-4.75-1.19-0.555-2.38-1.11-3.61-1.68-9.8-4.59-19-9.8-28.2-15.5-1.06-0.651-2.12-1.3-3.21-1.97-7.73-4.93-14.3-10.6-20.8-17-0.766-0.741-1.53-1.48-2.32-2.25-7.77-8.05-13.3-19.6-14.7-30.8 0.493-8.09 3.5-15 9-21 16.1-13.6 47.9-12.4 63.4 1.06z" fill="#6D7071"/>
<path transform="translate(809 364)" d="m0 0c2.05 0.0107 4.09 0.0213 6.14 0.032 13.8 0.104 27.5 0.494 41.2 2.28 0.801 0.0965 1.6 0.193 2.43 0.292 9.91 1.23 18.9 3.58 28.2 7.11 3.79 1.43 7.61 2.61 11.5 3.75 9.17 2.73 17.5 6.25 25.9 10.8 2.04 1.09 4.1 2.12 6.17 3.15 17.7 8.88 33.3 20.8 47.8 34.1 1.91 1.83 1.91 1.83 4.03 2.79v2c0.536 0.206 1.07 0.413 1.62 0.625 3.29 1.91 5.97 4.42 8.38 7.38v2h2c3.29 3.41 6.11 7.25 9 11 0.495 0.638 0.99 1.28 1.5 1.93 12 15.6 20.9 32.6 29.5 50.3 0.445 0.919 0.89 1.84 1.35 2.79 3.78 7.98 7.17 16.2 9.15 24.8 1.09 4.57 2.26 9.1 3.5 13.6 10.3 38.6 7.32 77.2-3.1 115-0.718 2.7-1.38 5.38-1.96 8.11-7.21 33.4-28.5 64-51.9 88.3-0.6 0.622-1.2 1.24-1.82 1.89-7.67 7.91-15.5 15.3-24.2 22.1-1.08 0.865-2.15 1.73-3.23 2.6-13.6 11-27.7 20.6-43.4 28.3-1.49 0.729-2.97 1.47-4.44 2.23-14.4 7.39-30.2 10.2-46 13.4-0.723 0.15-1.45 0.299-2.19 0.453-3.62 0.718-7.03 1.18-10.7 1.02 0.203-5.79 1.35-10.1 3.69-15.4 3.08-7.04 4.61-14.2 6.12-21.7 3.3-15.9 9.12-30.1 16.6-44.6 9.46-18.4 8.12-39.3 2.66-58.8-6.01-16-18.9-30.8-34-38.6-9.65-3.72-18.6-4.64-28.9-4.52-2.2 0.0215-4.39 4.01e-5 -6.59-0.0254-21.9-0.043-37.6 9.79-52.8 24.8-9.11 9.92-14.9 22.3-15.8 35.8-0.0516 0.782-0.103 1.56-0.156 2.37-0.633 17.7 5.8 31.2 13.7 46.7 10 19.8 15.9 38.8 19.2 60.8 0.227 1.48 0.454 2.96 0.682 4.45 0.549 3.58 1.09 7.16 1.63 10.7-10.6-2.03-21.2-4.16-31.6-7.08-3.09-0.845-6.18-1.55-9.31-2.23-7.75-1.93-14.9-5.25-22.1-8.69-0.623-0.295-1.25-0.59-1.89-0.894-10.4-5.02-19.6-11.5-28.9-18.4-2.19-1.65-4.41-3.27-6.62-4.9-10.2-7.58-19.5-15.9-28.6-24.8-0.631-0.611-1.26-1.22-1.91-1.85-7.57-7.33-14.7-14.8-21.1-23.1-0.51-0.645-1.02-1.29-1.55-1.95-14.2-17.9-24.3-37.4-31.5-59-0.303-0.902-0.606-1.8-0.917-2.73-9.43-28.1-11.7-54.7-11.1-84.3 0.0193-0.967 0.0387-1.93 0.0586-2.93 0.986-40.7 11.2-82.1 35.9-115 1.31-1.83 2.63-3.67 3.94-5.5 5.94-8.13 12.2-15.8 19-23.2 1.65-1.82 3.23-3.66 4.79-5.57 14.8-17.6 34.1-31.5 53.5-43.6 1.5-0.938 3-1.89 4.48-2.85 13.8-8.66 28.9-14.3 44.3-19.3 0.738-0.244 1.48-0.488 2.23-0.739 0.708-0.232 1.42-0.464 2.14-0.703 0.607-0.199 1.21-0.398 1.84-0.604 17.4-5.22 34.4-6.44 52.5-6.27z" fill="#233A90"/>
<path transform="translate(816 644)" d="m0 0c2.24-0.00434 4.48-0.0407 6.71-0.0786 17.4-0.137 31.2 4.6 44 16.9 16.2 16.4 22 36.2 22.2 58.8-0.0892 10.9-2.94 19.3-7.91 28.9-8.1 15.8-14 31.9-17.3 49.4-1.28 6.65-3.14 12.5-5.99 18.6-1.64 4.16-1.97 8.3-2.08 12.7-0.99 0.33-1.98 0.66-3 1-1.69 7.42-2.57 14.7-3.1 22.3-0.0835 1.2-0.167 2.41-0.253 3.65-1.03 16.3-1.09 32.5-1.09 48.8-3.22e-4 0.835-6.45e-4 1.67-9.77e-4 2.53-0.00421 44.1 3.31 87.2 12.3 130 1.14 5.48 2.22 11 3.29 16.5 3.47 17.7 7.21 35.2 11.7 52.7 0.187 0.737 0.374 1.47 0.567 2.23 0.528 2.07 1.07 4.13 1.61 6.2 0.304 1.15 0.608 2.31 0.921 3.5 2.29 7.14 4.66 10.2 11.1 13.8 4.97 2.32 10.1 3.67 15.4 4.98 1.15 0.302 2.3 0.603 3.49 0.914 4.86 1.26 9.7 2.46 14.7 3.3 26.2 4.5 58.7 20.7 74.4 42.4 7.96 12.3 8.23 25.3 5.81 39.5-1.46 6.58-3.55 11.1-7.88 16.2-0.638 0.808-1.28 1.62-1.93 2.45-9.06 10.9-20.9 17.2-33.1 23.9-1.63 0.899-1.63 0.899-3.3 1.82-9.88 5.29-20 8.64-30.8 11.2-0.833 0.203-1.67 0.406-2.52 0.615-1.8 0.438-3.61 0.874-5.41 1.31-3.05 0.743-6.09 1.51-9.13 2.28-2.15 0.536-4.29 1.07-6.44 1.61-0.972 0.25-1.94 0.5-2.94 0.757-15.4 3.78-31.1 4.49-46.9 5.18-0.921 0.042-1.84 0.0841-2.79 0.127-14.6 0.661-29.1 1.1-43.7 0.748-1.08-0.0247-2.16-0.0493-3.28-0.0747-7.91-0.198-15.8-0.524-23.7-0.925-0.955-0.0432-1.91-0.0864-2.89-0.131-44.6-2.17-98.8-15.2-130-49-9.04-11.4-12-23.5-11-37.9 2.19-13.6 10.2-25.1 21-33.2 10.7-7.64 22.5-13.4 34.2-19.3 1.76-0.895 3.51-1.82 5.23-2.79 7.89-4.34 16.4-6.14 25.1-8.23 11.9-2.86 11.9-2.86 23.7-6.21 1.17-0.358 1.17-0.358 2.37-0.722 6.25-3.79 9.57-8.67 11.4-15.7 0.536-2.42 1.05-4.85 1.53-7.28 0.283-1.32 0.568-2.65 0.856-3.97 0.756-3.52 1.48-7.04 2.2-10.6 0.746-3.64 1.52-7.27 2.29-10.9 1.76-8.35 3.46-16.7 5.16-25.1 0.34-1.67 0.34-1.67 0.688-3.38 1.26-6.18 2.49-12.4 3.69-18.6 0.143-0.734 0.286-1.47 0.434-2.22 1.75-8.91 1.75-8.91 2.23-18-0.0391-3.87-0.0391-3.87 0.882-6.05 1.48-3.87 1.84-7.67 2.3-11.8 0.154-1.32 0.154-1.32 0.312-2.67 0.332-2.87 0.652-5.75 0.97-8.63 0.11-0.979 0.221-1.96 0.335-2.97 1.77-15.7 3.02-31.4 3.81-47.2 0.723-14.3 0.723-14.3 2.36-17.6 0.098-2.25 0.13-4.5 0.125-6.75 0.00258-1.21 0.00516-2.42 0.00781-3.67-0.0447-3.47-0.0447-3.47-0.639-6.39-0.514-3.32-0.574-6.39-0.521-9.75 0.0137-1.28 0.0274-2.55 0.0415-3.87 0.0125-1.01 0.0125-1.01 0.0252-2.04 0.132-11.9-0.104-23.8-0.914-35.7-0.0786-1.21-0.157-2.41-0.238-3.66-0.52-9.46-0.52-9.46-4.92-17.6-2.51-3.34-2.93-6.46-3.42-10.5-0.223-1.57-0.446-3.13-0.67-4.7-0.111-0.814-0.222-1.63-0.336-2.47-3.65-26.3-12.7-47.7-24.8-71.3-8.68-17.3-10.1-35.5-4.21-54 7.22-18.8 24.3-33.5 42.3-41.5 8.55-3.12 16.5-3.53 25.5-3.53z" fill="#000002"/>
<path transform="translate(786 209)" d="m0 0c3.31 0.75 3.31 0.75 4.31 1.75 3.06 0.161 5.06-0.0185 8-1 2.33-0.0395 4.67-0.044 7 0 0.33 0.99 0.66 1.98 1 3-0.33 0.66-0.66 1.32-1 2 0.715-0.0722 1.43-0.144 2.17-0.219 5.33-0.497 10.5-0.808 15.9-0.656 7.27 0.0789 14.2-1.13 21.4-2.37 7.85-1.33 15.2-1.89 23.2-1.44 1.38 0.0728 1.38 0.0728 2.78 0.147 2.05 0.111 4.09 0.226 6.14 0.345 3.15 0.179 6.29 0.341 9.44 0.499 2.79 0.143 5.58 0.299 8.37 0.457 1.37 0.076 2.74 0.148 4.11 0.215 7.2 0.36 13.1 0.779 19.5 4.02 3.09 0.699 3.09 0.699 6.19 1.06 5.42 0.738 10.8 1.64 16.2 2.67 2.63 0.407 2.63 0.407 5.08-0.262 3.41-0.62 5.97 0.0425 9.33 0.844 1.15 0.264 2.3 0.529 3.48 0.801 0.913 0.293 1.83 0.585 2.77 0.887 0.33 0.66 0.66 1.32 1 2 1.65 0.717 3.31 1.38 5 2 0.66 0.33 1.32 0.66 2 1 1.54 0.584 3.08 1.17 4.62 1.75 3.33 1.32 6.32 2.72 9.31 4.69 3.79 2.49 7.73 4.29 11.9 6.12 9.73 4.4 19.2 9.13 28.1 15.1 2.18 1.5 2.18 1.5 5.14 2.35v2c0.763 0.103 1.53 0.206 2.31 0.312 2.69 0.688 2.69 0.688 3.94 2.06 2.51 2.33 5.24 3.14 8.44 4.31 1.18 0.437 2.36 0.874 3.57 1.32 0.904 0.326 1.81 0.652 2.74 0.988 0.66-0.66 1.32-1.32 2-2 3.88 1.87 3.88 1.87 5 3 1.26 0.392 2.52 0.784 3.81 1.19 5.07 1.63 9.61 3.99 14.3 6.51 2.84 1.44 2.84 1.44 5.94 1.71 3.76 0.75 5.28 2.26 8.02 4.9 2.53 2.41 4.98 4.72 7.75 6.86 0.723 0.605 1.45 1.21 2.19 1.83v2c0.536 0.227 1.07 0.454 1.62 0.688 5.56 3.07 9.52 7.44 13.6 12.2 2.62 2.98 5.44 5.73 8.28 8.5 6.5 6.35 12.7 12.7 18.4 19.8 2.26 2.84 4.61 5.59 6.98 8.35 9.43 11.3 17.6 23.5 25 36.3 1.33 2.31 2.69 4.6 4.05 6.89 6.94 11.8 13.1 23.9 18.9 36.4 0.92 1.99 1.85 3.97 2.79 5.95 3.56 7.57 6.67 15.2 9.52 23.1 0.429 1.17 0.857 2.34 1.3 3.55 9.86 27.1 9.86 27.1 11.2 36.5 0.472 2.79 1.13 5.46 1.85 8.19 1.71 6.73 2.98 13.5 4.17 20.4 0.218 1.24 0.435 2.47 0.659 3.75 1.47 8.46 2.82 16.9 3.78 25.4 0.0888 0.767 0.178 1.53 0.269 2.32 0.292 2.54 0.576 5.08 0.856 7.61 0.0879 0.782 0.176 1.56 0.266 2.37 0.395 3.73 0.647 7.38 0.601 11.1-0.257 3.4-0.257 3.4 1.01 5.56 0.0951 1.58 0.128 3.16 0.129 4.74 0.00473 1.48 0.00473 1.48 0.00955 2.98-0.00202 1.07-0.00405 2.14-0.00613 3.24 9.57e-4 1.1 0.00191 2.19 0.0029 3.32 6.82e-4 2.32-0.00117 4.64-0.00534 6.96-0.00533 3.55-6.21e-5 7.1 0.00635 10.6-6.61e-4 2.25-0.00194 4.51-0.00391 6.76 0.00202 1.06 0.00405 2.12 0.00613 3.22-0.00315 0.994-0.0063 1.99-0.00955 3.01-0.00119 1.31-0.00119 1.31-0.00241 2.64-0.132 2.58-0.603 4.96-1.13 7.49 0.0206 0.908 0.0412 1.82 0.0625 2.75-0.0542 2.82-0.398 4.92-1.06 7.62-0.868 3.61-1.05 6.84-0.947 10.6-0.0575 2.23-0.424 4.21-0.901 6.39-1.41 6.75-2.48 13.5-3.59 20.4-6.64 40.2-20 76.6-39.6 112-0.398 0.728-0.795 1.46-1.2 2.21-12.6 22.9-12.6 22.9-18.8 28.8-0.99-0.33-1.98-0.66-3-1-0.33 1.32-0.66 2.64-1 4h-4c-0.66-1.98-1.32-3.96-2-6-0.346 0.946-0.346 0.946-0.699 1.91-1.3 2.09-1.3 2.09-3.51 2.96-0.86 0.187-1.72 0.374-2.61 0.566-4.88 1.27-6.94 2.8-10.2 6.56h-2c-0.186 0.701-0.371 1.4-0.562 2.12-2 4-4.38 6.86-8.44 8.88-3.24-0.043-5.98-0.881-9-2-0.99-0.33-1.98-0.66-3-1v-6h-2v6h-3v-11h-2v-2h2v-3h-2c-1.49-2.98-1.12-5.72-1-9 1-1 1-1 3.56-1.06 0.804 0.0206 1.61 0.0412 2.44 0.0625 0.33-2.31 0.66-4.62 1-7 0.289 0.639 0.577 1.28 0.875 1.94 0.953 2.21 0.953 2.21 3.12 3.06 0.33-1.65 0.66-3.3 1-5 0.99-0.33 1.98-0.66 3-1 1-1.75 2-3.5 2.96-5.28 1.34-2.21 2.81-3.46 5.04-4.72h2c0.196-1.92 0.381-3.83 0.562-5.75 0.104-1.07 0.209-2.13 0.316-3.23 0.108-2.69-0.121-4.48-0.879-7.02v-5c-0.165-0.619-0.33-1.24-0.5-1.88-0.717-3.05-0.56-6.01-0.5-9.12h2c-0.0928-1.39-0.0928-1.39-0.188-2.81 0.188-3.19 0.188-3.19 1.56-5.06 1.62-1.12 1.62-1.12 3.62-1.12v-18c-1.98-0.66-3.96-1.32-6-2-0.99-0.33-1.98-0.66-3-1h2l-0.25-3.31 0.25-3.69c0.65-0.433 1.3-0.866 1.97-1.31 2.36-1.6 2.36-1.6 2.64-4.82 0.0696-1.76 0.0696-1.76 0.141-3.55 0.0567-1.18 0.113-2.36 0.172-3.57 0.0387-1.36 0.0387-1.36 0.0781-2.74h2c0.961-2.88 1.12-4.68 1.1-7.67-0.00322-0.893-0.00645-1.79-0.00977-2.71-0.00838-0.929-0.0168-1.86-0.0254-2.81-0.00677-1.41-0.00677-1.41-0.0137-2.85-0.0118-2.32-0.0282-4.64-0.0488-6.96h-2c-0.33-2.97-0.66-5.94-1-9h-2v9h-2c-0.33-2.97-0.66-5.94-1-9h2v-2c1.5-1.62 1.5-1.62 3-3h-2v2h-2c0.375-1.94 0.375-1.94 1-4 0.66-0.33 1.32-0.66 2-1 0.165-0.99 0.33-1.98 0.5-3 0.165-0.99 0.33-1.98 0.5-3 0.66-0.33 1.32-0.66 2-1 0.33-5.61 0.66-11.2 1-17-0.66 1.32-1.32 2.64-2 4v-8c-2.08 2.08-1.73 6.19-2.06 9.06-0.0909 0.759-0.182 1.52-0.275 2.3-0.225 1.88-0.444 3.76-0.662 5.64h-1c-0.0887-7.11-0.148-14 1-21-0.0309-1.67-0.0309-1.67-0.0625-3.38 0.0979-5.68 1.56-10.9 3.12-16.3 1.8-6.35 2.48-13 3.44-19.5 0.5-2.83 0.5-2.83 1.5-4.83-0.33-0.99-0.66-1.98-1-3 0.99-0.66 1.98-1.32 3-2 1.31 2.61 0.926 4.17 0.625 7.06-0.149 1.47-0.149 1.47-0.301 2.96-0.107 0.982-0.214 1.96-0.324 2.98-0.145 1.35-0.145 1.35-0.293 2.73-0.229 2.09-0.467 4.18-0.707 6.27 0.133-0.664 0.266-1.33 0.402-2.01 0.866-4.33 1.73-8.66 2.6-13h1c0.66 2.64 1.32 5.28 2 8 0.66-0.66 1.32-1.32 2-2l0.586 1.83c0.391 1.2 0.391 1.2 0.789 2.42 0.255 0.789 0.51 1.58 0.773 2.39 0.803 2.23 1.75 4.27 2.85 6.36h4v-2h4v2c-1.32 0.66-2.64 1.32-4 2 3.07 0.911 5.8 1.09 9 1v-3h-4v-2h4c0.33-0.99 0.66-1.98 1-3h7v-2-3c1.32-0.33 2.64-0.66 4-1v-7c-0.66-0.33-1.32-0.66-2-1h2v-4c-0.66-0.33-1.32-0.66-2-1v-7c-0.66 1.65-1.32 3.3-2 5-0.99-0.33-1.98-0.66-3-1v-2h2c-0.66-0.99-1.32-1.98-2-3-0.33 0.66-0.66 1.32-1 2-0.99 0.33-1.98 0.66-3 1h3c-0.33 0.99-0.66 1.98-1 3h-2v2h-5v-4h4v-2c-0.619-0.103-1.24-0.206-1.88-0.312-2.12-0.688-2.12-0.688-4.12-3.69 0.33-0.99 0.66-1.98 1-3 0.454 0.474 0.908 0.949 1.38 1.44 1.56 1.65 1.56 1.65 3.62 2.56-0.33-1.98-0.66-3.96-1-6-1.32-0.33-2.64-0.66-4-1h4v-4h-4c-0.33-3.3-0.66-6.6-1-10-1.65 0.33-3.3 0.66-5 1v-2h-3v-5h-2c-0.186-0.959-0.186-0.959-0.375-1.94-0.206-0.681-0.412-1.36-0.625-2.06-0.66-0.33-1.32-0.66-2-1-0.393-2.32-0.507-4.62-0.656-6.97-0.113-0.67-0.227-1.34-0.344-2.03-0.66-0.33-1.32-0.66-2-1h2c-0.42-3.38-0.864-6.75-1.31-10.1-0.118-0.951-0.236-1.9-0.357-2.88-0.712-5.26-1.67-9.32-4.33-14v-2h-2c-0.196-0.69-0.392-1.38-0.594-2.09-2.11-6.62-4.7-10.7-9.5-15.6-3.21-3.83-5.91-9.17-5.91-14.3h-2c-3-5.75-3-5.75-3-8h-2c-2.88-6.62-2.88-6.62-4-10h-2c-0.242-0.771-0.485-1.54-0.734-2.34-0.335-1-0.67-2.01-1.02-3.04-0.325-0.998-0.65-2-0.984-3.02-1.46-3-2.31-3.32-5.27-4.6-2.02-2.65-4-5.6-4-9h-2v-2h-2c-0.67-1.96-1.34-3.92-2-5.88-0.371-1.09-0.742-2.18-1.12-3.3-0.875-2.82-0.875-2.82-0.875-4.82h-2v-2h-2c-0.33-1.65-0.66-3.3-1-5h-2v-2h-2v-2h-2c-0.254-0.566-0.508-1.13-0.77-1.71-0.344-0.733-0.688-1.47-1.04-2.22-0.336-0.731-0.673-1.46-1.02-2.21-1.1-2.18-1.1-2.18-4.17-2.85-0.992-1.67-0.992-1.67-1.88-3.75-1.79-3.85-3.93-6.4-7.12-9.25-0.33-0.33-0.66-0.66-1-1-2.33-0.368-4.66-0.702-7-1-0.33-2.64-0.66-5.28-1-8-1.98-0.33-3.96-0.66-6-1v-2c-2.47-0.99-2.47-0.99-5-2v-2h-3v2h-2v-2h-4c1.81 1.81 3.68 3.46 5.62 5.12 0.632 0.539 1.26 1.08 1.91 1.63 0.482 0.41 0.964 0.82 1.46 1.24-3 0-3 0-5-1v3c0.99 0.33 1.98 0.66 3 1-0.33 1.32-0.66 2.64-1 4-4 0-4 0-6.38-2.06-1.91-2.14-3.78-4.3-5.62-6.5-2.42-2.87-4.96-5.21-8-7.44 1.11-2.22 2.49-4.04 4-6 0.33 0.99 0.66 1.98 1 3h4v2h2v-3h-3v-3c-0.99-0.33-1.98-0.66-3-1 0.99-0.33 1.98-0.66 3-1v-3h-3v-4h-2v4h-3c-0.268-0.722-0.536-1.44-0.812-2.19-2.57-6.1-6.19-10-11-14.5-1.19-1.31-1.19-1.31-1.19-3.31-0.714-0.238-1.43-0.477-2.16-0.723-3.28-1.48-5.51-3.35-8.21-5.71-4.16-3.49-7.56-5.74-12.6-7.56-2.93-1.53-4.94-2.94-7.25-5.31-3.07-3-6.32-5.11-9.96-7.36-0.592-0.44-1.18-0.879-1.79-1.33v-2c-0.949-0.268-1.9-0.536-2.88-0.812-3.12-1.19-3.12-1.19-5.12-4.19-1.94 0-3.89 0.00697-5.83 0.0742-3.69-0.126-5.97-1.22-9.17-3.07-0.707-1.65-1.38-3.32-2-5-2.55-0.894-2.55-0.894-5-1v-2h-2v-2c-4.29-0.66-8.58-1.32-13-2 0.66 0.66 1.32 1.32 2 2-2.56-0.114-5.13-0.241-7.69-0.375-0.721-0.0309-1.44-0.0619-2.19-0.0938-4.96-0.272-8.66-1.3-13.1-3.53-0.33 0.33-0.66 0.66-1 1-0.759-0.228-1.52-0.456-2.3-0.691-0.994-0.287-1.99-0.575-3.01-0.871-1.48-0.435-1.48-0.435-2.99-0.879-2.78-0.811-2.78-0.811-5.7 0.441-2.62-1.44-2.62-1.44-5-3h-1c6.98 4.89 15.8 6.28 24 8-3.26 2.17-4.14 2.15-7.83 1.48-12-2.68-12-2.68-17.2-5.48v-2h-18c-0.33 0.66-0.66 1.32-1 2-0.804-0.433-1.61-0.866-2.44-1.31-7.88-3.73-14.6-4.98-23.3-5.44-3.73-0.283-6.7-1.09-10.2-2.25-2.33-0.361-4.66-0.697-7-1-0.928-0.206-1.86-0.413-2.81-0.625-2.22-0.603-2.22-0.603-4.19 0.625-1.68 0.207-3.37 0.367-5.06 0.5-1.49 0.126-1.49 0.126-3.01 0.254-0.967 0.0812-1.93 0.162-2.93 0.246-6.13 0.571-12.1 1.5-18.2 2.6-2.65 0.381-5.13 0.475-7.8 0.402v4c-0.33 0.66-0.66 1.32-1 2h-3v2c-1.07-0.206-2.14-0.413-3.25-0.625-3.56-0.693-3.56-0.693-5.75 0.625-3.09 1.55-5.7 0.634-9 0 1.32-0.33 2.64-0.66 4-1-0.33-0.66-0.66-1.32-1-2-2.55-0.312-5-0.513-7.56-0.625-0.711-0.0387-1.42-0.0773-2.15-0.117-1.76-0.0945-3.52-0.177-5.28-0.258v2c0.66 0.33 1.32 0.66 2 1-1.16 3.48-1.68 3.72-4.81 5.31-1.03 0.551-1.03 0.551-2.08 1.11-2.11 0.574-2.11 0.574-4.37-0.32-0.86-0.547-0.86-0.547-1.74-1.11 2.48-0.99 2.48-0.99 5-2-1.42-1.88-1.42-1.88-4-3-2.16 0.528-4.15 1.36-6.22 2.16-4.51 1.35-9.06 1.41-13.7 1.62-3.08 0.0869-3.08 0.0869-6.04 1.21v2c-1.33 0.588-1.33 0.588-2.69 1.19-3.36 1.64-3.36 1.64-5.69 4.19-3.18 3.18-6.63 5.55-10.6 7.62h-2v2c-1.46 0.53-2.91 1.05-4.38 1.56-1.22 0.435-1.22 0.435-2.46 0.879-2.16 0.559-2.16 0.559-4.16-0.441v2c-3.88 1.98-7.68 3.9-11.8 5.44-3.37 1.32-3.37 1.32-5.25 4.12-2.67 3.25-4.94 3.64-9 4.44h-4c0.66-0.33 1.32-0.66 2-1 0.33-0.66 0.66-1.32 1-2 2.31-0.731 4.65-1.4 7-2-5.29 0.415-8.12 1.35-12 5 0.33 0.99 0.66 1.98 1 3-2.32 2.68-4.32 3.66-7.69 4.69-0.808 0.251-1.62 0.503-2.45 0.762-0.922 0.273-0.922 0.273-1.86 0.551h2c-0.33 0.99-0.66 1.98-1 3h-2c-0.66 0.66-1.32 1.32-2 2v-2h-2c-0.33 0.99-0.66 1.98-1 3-1.65 0.33-3.3 0.66-5 1 2.62 0 4.51-0.313 7-1-0.75 1.94-0.75 1.94-2 4-2.12 0.75-2.12 0.75-4 1-0.0825 0.578-0.165 1.15-0.25 1.75-1.01 3.04-2.2 4.3-4.75 6.25-2.32 0.414-4.66 0.749-7 1-2.34 0.956-2.34 0.956-4 2-0.66-0.66-1.32-1.32-2-2v-1c-0.371 1.18-0.371 1.18-0.75 2.38-1.46 3.06-2.3 3.24-5.25 4.62-1.32 2.09-1.95 3.68-2.31 6.12-0.688 1.88-0.688 1.88-2.81 3.06-2.88 0.812-2.88 0.812-6.56 1.19-3.4 0.242-3.4 0.242-4.75 2.69-0.278 0.959-0.278 0.959-0.562 1.94h-2c-0.33 1.32-0.66 2.64-1 4h-2c-0.236 0.754-0.472 1.51-0.715 2.29-1.51 3.18-2.95 4.21-5.85 6.15-3.71 2.67-3.71 2.67-5.5 6.81 0.0206 0.908 0.0412 1.82 0.0625 2.75 0 3 0 3-2 6h-4c-2.16 2.91-2.16 2.91-4 6-0.66 0.33-1.32 0.66-2 1-0.66 0.66-1.32 1.32-2 2-1.45 0.402-1.45 0.402-2.94 0.812-3.83 1.49-4.34 2.5-6.06 6.19-0.668 1.52-1.33 3.04-2 4.56-2.77 6.3-2.77 6.3-5 8.44h-4c-0.33 0.99-0.66 1.98-1 3-3.06 1.19-3.06 1.19-6 2 0.66-2.31 1.32-4.62 2-7h2c-0.33-3.3-0.66-6.6-1-10-0.969-0.309-1.94-0.619-2.94-0.938-3.06-1.06-3.06-1.06-4.06-2.06-0.0731-2.53-0.0925-5.03-0.0625-7.56 0.00451-0.711 0.00902-1.42 0.0137-2.15 0.0118-1.76 0.0298-3.52 0.0488-5.28h-4c-0.33 0.99-0.66 1.98-1 3v-10h-2v-2h-5c0.113-2.15 0.241-4.29 0.375-6.44 0.0696-1.19 0.139-2.39 0.211-3.62 0.137-0.971 0.273-1.94 0.414-2.94 0.66-0.33 1.32-0.66 2-1-0.0232-0.727-0.0464-1.45-0.0703-2.2-0.132-7.38 0.178-14.6 2.07-21.8 2.5-2.5 3.67-2.36 7.12-2.62 1.37-0.112 1.37-0.112 2.76-0.227 0.699-0.049 1.4-0.098 2.12-0.148v-3h3c0.33-2.64 0.66-5.28 1-8h2c-0.0464-0.629-0.0928-1.26-0.141-1.91-0.257-6.1 0.236-11.2 4.14-16.1 2.14-1.22 2.14-1.22 4-2v-2c1.42-0.681 1.42-0.681 2.88-1.38 3.93-2.04 4.84-2.95 6.56-7.06 2.07-4.72 2.07-4.72 4.56-6.56h2c0.247-0.577 0.495-1.15 0.75-1.75 1.43-2.58 3.03-4.31 5.25-6.25h2c1.57-2.84 1.57-2.84 2-6-0.508 0.519-1.02 1.04-1.54 1.57-3.2 3.24-6.36 6.43-9.9 9.3-2.6 1.87-2.6 1.87-3.56 4.12-0.99-0.33-1.98-0.66-3-1-0.33-0.99-0.66-1.98-1-3 1.39-0.402 1.39-0.402 2.81-0.812 2.95-1.1 4.24-1.81 6.19-4.19-0.33-0.66-0.66-1.32-1-2 3.51-3.89 3.51-3.89 5.94-4.44 2.36-0.451 2.36-0.451 4.38-3 3.14-3 5.52-3.56 9.69-4.56 0.99-0.66 1.98-1.32 3-2 2.69-0.125 2.69-0.125 5 0v-2c1.86-1.4 1.86-1.4 4.31-2.94 2.91-1.83 5.28-3.63 7.69-6.06 1.99-1.02 3.99-2.02 6-3 1.36-0.965 2.7-1.95 4-3-0.33-0.66-0.66-1.32-1-2 4.03-2.99 7.65-4.67 12.4-6.15 3.04-0.999 5.99-2.15 8.95-3.35 0.998-0.402 2-0.804 3.02-1.22 2.6-1.11 2.6-1.11 4.2-2.88 1.77-1.77 3.03-1.93 5.46-2.34 2.1-0.412 2.1-0.412 3.94-1.06 1.36-1.97 1.36-1.97 2-4 0.99-0.33 1.98-0.66 3-1 0.66-0.33 1.32-0.66 2-1v-2c-1.14 0.773-1.14 0.773-2.31 1.56-0.887 0.474-1.77 0.949-2.69 1.44-0.99-0.33-1.98-0.66-3-1 14.9-11.3 14.9-11.3 20.9-10.7 0.681 0.227 1.36 0.454 2.06 0.688v2h5c0.186-1.21 0.186-1.21 0.375-2.44 0.206-0.846 0.413-1.69 0.625-2.56l2-1v-2l4-1v-2c2.38-0.625 2.38-0.625 5-1l2 2c-0.33 0.99-0.66 1.98-1 3 2.48-0.99 2.48-0.99 5-2-0.99-2.47-0.99-2.47-2-5h2v-2c4.39-3.55 7.88-4.61 13.4-5.19 1.26-0.138 2.51-0.276 3.81-0.418 1.24-0.13 2.48-0.26 3.75-0.395 1.23-0.202 2.46-0.405 3.72-0.613 2.9-0.342 4.58-0.358 7.28 0.613-1.77 0.673-3.54 1.34-5.31 2-0.986 0.371-1.97 0.743-2.99 1.12-2.7 0.875-2.7 0.875-5.7 0.875v2c0.75-0.193 1.5-0.387 2.27-0.586 6.55-1.67 13.1-3.17 19.7-4.41v-3c1.98-0.99 3.96-1.98 6-3-0.33 1.32-0.66 2.64-1 4h4 4v2c-0.687 0.338-1.37 0.675-2.08 1.02-1.35 0.669-1.35 0.669-2.73 1.35-0.893 0.441-1.79 0.882-2.71 1.34-2.63 1.31-2.63 1.31-5.48 3.29h7v-2c4.51-3.91 9.38-3.29 15-3 0.33-0.99 0.66-1.98 1-3 0.33 0.66 0.66 1.32 1 2 0.66-0.33 1.32-0.66 2-1 3.75-1.25 7.06-1 11-1 0.762-0.321 1.52-0.642 2.31-0.973 4.35-1.66 8.8-1.43 13.4-1.59 4.76-0.641 6.09-3.52 11-3.19z" fill="#00643D"/>
<path transform="translate(498,447)" d="m0 0c4.88 0.875 4.88 0.875 6 2 0.0727 2.35 0.0837 4.71 0.0625 7.06-0.00902 1.29-0.018 2.58-0.0273 3.91-0.0116 0.999-0.0232 2-0.0352 3.03h2c2.46 8.31 2.81 16.5 1 25-0.99 0.495-0.99 0.495-2 1-0.0606 1.15-0.121 2.29-0.184 3.47-0.0845 1.53-0.169 3.06-0.254 4.59-0.0393 0.752-0.0786 1.5-0.119 2.28-0.728 12.9-0.728 12.9-3.44 15.7-0.428 3.06-0.428 3.06-0.562 6.5-0.342 6.31-0.342 6.31-1.44 8.5 0.0171 1.85 0.0352 3.69 0.0586 5.54-0.115 4.86-0.891 9.66-1.56 14.5-0.143 1.06-0.286 2.12-0.434 3.21-0.351 2.6-0.706 5.19-1.07 7.79-1.32 0.33-2.64 0.66-4 1 0.531 8.53 0.531 8.53 1.62 17 0.373 2.98 0.161 5.12-0.625 8h-2v2c0.66 0.33 1.32 0.66 2 1-0.33 0.66-0.66 1.32-1 2-0.511 6.39 0.334 11.9 2 18 0.125 2.88 0.125 2.88 0 5-0.185 2.32-0.185 2.32 2 5-0.129 1.95-0.129 1.95-0.562 4.12-0.663 4.58 0.278 7.55 1.93 11.8 0.879 2.89 0.355 5.19-0.367 8.08 0.33 0.33 0.66 0.66 1 1 0.314 4.3 0.0766 8.49-0.562 12.8-0.43 3.19-0.248 5.17 0.562 8.25 0.333 1.67 0.667 3.33 1 5h2v2h2c1.33 4.46 1.32 8.99 1.52 13.6 0.445 3.16 1.28 5.58 2.62 8.46 0.965 2.18 1.74 4.38 2.5 6.63 0.284 0.817 0.567 1.63 0.859 2.47 0.581 1.68 1.15 3.37 1.71 5.06 1.77 5.02 3.24 7.68 7.78 10.8v2h2c0.33-0.66 0.66-1.32 1-2 0.33 0.33 0.66 0.66 1 1 0.66-0.66 1.32-1.32 2-2 0.454 1.18 0.454 1.18 0.918 2.38 3.63 10.3 3.63 10.3 11.1 17.6 0.475 1.9 0.944 3.8 1.39 5.7 1.99 7.44 6.07 14 10 20.5 1.45 2.55 2.57 5.05 3.59 7.8h2c1.73 2.55 1.73 2.55 3.62 5.88 0.632 1.09 1.26 2.18 1.91 3.3 1.46 2.82 1.46 2.82 1.46 4.82h2c0.474 0.66 0.949 1.32 1.44 2 0.516 0.66 1.03 1.32 1.56 2h3c2.12 0.312 2.12 0.312 4 1 0.33 0.99 0.66 1.98 1 3 0.66 0.66 1.32 1.32 2 2 0.33 0.99 0.66 1.98 1 3h3v7h2v2c1.32 0.33 2.64 0.66 4 1v2c3.59 1.87 7.28 3.43 11 5v3c0.592 0.135 1.18 0.271 1.79 0.41 5.29 1.44 8.54 2.98 11.5 7.7 0.707 1.89 0.707 1.89 0.145 5.39-0.777 3.37-0.777 3.37 0.707 5.5 1.54 1.86 2.95 3.51 4.86 5h3c0.33-0.66 0.66-1.32 1-2 4.31 0.479 6.19 2.86 9 6 2.91 3.65 5.6 7.38 8.12 11.3 2.39 3.42 4.27 5.18 8.25 6.44 2.68 0.42 2.68 0.42 5.38-0.562 4.49-0.259 6.71 1.43 10.3 4 2.74 2.52 3.62 5.38 4.96 8.81 2.99 3.51 5.56 5.8 10.2 6.44 2.71-0.367 2.71-0.367 4.88-1 2.53-0.571 4.45-0.0595 6.94 0.562v2c0.581-0.187 1.16-0.374 1.76-0.566 3.77-0.731 6.95 0.843 10.2 2.57 1.77 1.4 3.41 2.91 5.07 4.44 7 5.65 14.6 7.65 23.4 8 5.16 0.236 10.1 0.538 15.2 1.62 11 2.23 21.9 0.947 32.9-0.82 3.6-0.252 5.24 0.324 8.46 1.76 0.99-0.33 1.98-0.66 3-1 0.986 4.11 1.13 7.97 1.12 12.2 0.00258 1.23 0.00516 2.46 0.00781 3.73-0.133 3.08-0.133 3.08-1.13 5.08-0.188 1.72-0.322 3.44-0.43 5.16-0.0715 1.09-0.143 2.17-0.217 3.29-0.0755 1.19-0.151 2.38-0.229 3.61-1.43 21.1-3.26 42.2-5.69 63.2-0.115 1.02-0.229 2.05-0.347 3.1-0.17 1.41-0.17 1.41-0.344 2.85-0.0961 0.811-0.192 1.62-0.291 2.46-0.509 2.62-1.4 4.9-2.45 7.34-9.56 0.202-18.6 0.264-28-2v-2c-0.993-0.263-0.993-0.263-2.01-0.531-6.85-1.84-13.6-3.86-20.4-6.03-1.07-0.342-2.13-0.684-3.23-1.04-23.3-7.55-46.4-15.8-69.4-24.4v-3h2l-1.44-1.38c-1.56-1.63-1.56-1.63-2.56-3.62-0.66 0.33-1.32 0.66-2 1-0.652 2.02-0.652 2.02-1 4-1.44-0.426-2.88-0.866-4.31-1.31-0.801-0.244-1.6-0.487-2.43-0.738-2.36-0.991-3.6-2.03-5.26-3.95 0.66-0.66 1.32-1.32 2-2 0.99 0.33 1.98 0.66 3 1-0.186-0.619-0.371-1.24-0.562-1.88-0.438-2.12-0.438-2.12 0.562-4.12h-3v-2c-0.578-0.289-1.15-0.578-1.75-0.875-1.44-0.721-2.88-1.45-4.31-2.19-2.07-1.05-2.07-1.05-4.94-1.94v-2h2c-3.57-6.1-8.39-10.4-14.1-14.5-1.88-1.48-1.88-1.48-3.88-4.48-0.66-0.165-1.32-0.33-2-0.5-2-0.5-2-0.5-4-3.5-0.66-0.33-1.32-0.66-2-1v-2c-0.804-0.34-0.804-0.34-1.62-0.688-3.13-1.73-5.64-4.02-8.38-6.31-1.14-0.679-1.14-0.679-2.3-1.37-2.57-1.55-4.95-3.26-7.36-5.04-5.37-3.92-9.5-6.71-16.3-6.59-3.52 0-4.37-0.824-7-3 0.33-0.66 0.66-1.32 1-2-0.33-0.33-0.66-0.66-1-1-0.0309-1.08-0.0309-1.08-0.0625-2.19-1.28-3.83-3.45-4.96-6.71-7.21-2.18-1.57-4.04-3.25-5.98-5.1-4.1-3.68-8.64-5.92-13.6-8.24-2.64-1.26-2.64-1.26-5.64-3.26v-2c-1.08-0.34-1.08-0.34-2.19-0.688-3.4-1.59-5.26-3.57-7.81-6.31-0.825-0.825-1.65-1.65-2.5-2.5-3.17-3.17-6.33-6.33-9.5-9.5v-3c-0.99-0.33-1.98-0.66-3-1-1.39-1.96-2.71-3.97-4-6-2.37-3.15-4.77-6.27-7.17-9.39-1.83-2.61-1.83-2.61-1.83-4.61h-2c-2-3-2-3-2-6-0.99-0.33-1.98-0.66-3-1-1.39-1.74-1.39-1.74-2.69-3.88-0.437-0.699-0.874-1.4-1.32-2.12-0.988-2.01-0.988-2.01-0.988-5.01h-2v-3h-2v-3h-2c-2-3-2-3-2-6h-2c-1.26-2.91-2-4.8-2-8h-2c-0.568-1.09-1.14-2.18-1.72-3.3-5.19-9.9-5.19-9.9-10.8-19.6-3.94-6.64-7.14-13.6-10.4-20.6-2.89-7.23-2.89-7.23-7.11-13.5-0.0633-1.89-0.0592-3.79-0.0273-5.69l0.0371-3.56c0.0347-2.47 0.0737-4.94 0.117-7.41 0.0631-6.83-0.454-12.7-2.13-19.3 0.33-0.33 0.66-0.66 1-1 0.368-2.33 0.702-4.66 1-7-1.65 0.33-3.3 0.66-5 1-0.706-4.16-1.39-8.33-2.06-12.5-0.199-1.17-0.398-2.35-0.604-3.55-2.38-14.9-2.38-14.9 1.67-20.9 0.33 1.32 0.66 2.64 1 4 0.33-3.3 0.66-6.6 1-10 0.99 0.99 1.98 1.98 3 3 0.133-0.892 0.266-1.78 0.402-2.7 0.177-1.17 0.353-2.34 0.535-3.55 0.174-1.16 0.348-2.32 0.527-3.52 0.408-2.47 0.874-4.83 1.54-7.23-0.99-0.66-1.98-1.32-3-2-0.73-2.82-0.73-2.82-1.19-6.12-0.238-1.64-0.238-1.64-0.48-3.32-0.11-0.843-0.219-1.69-0.332-2.55-1.65 0.33-3.3 0.66-5 1v-46h6c1 3 1 3 0 6h2v-6h3v5c0.66 0.33 1.32 0.66 2 1v-6h2c-0.33-5.28-0.66-10.6-1-16l-3 6h-1c-0.0606-0.855-0.121-1.71-0.184-2.59-0.0838-1.1-0.168-2.21-0.254-3.35-0.0812-1.1-0.162-2.2-0.246-3.34-0.0206-2.63-0.0206-2.63-1.32-3.72-0.125-3-0.125-3 0-6 0.495-0.495 0.495-0.495 1-1 0.0715-1.35 0.084-2.71 0.0625-4.06-0.0206-1.3-0.0412-2.6-0.0625-3.94 0.99-0.495 0.99-0.495 2-1v6h3v-5c1.49-0.495 1.49-0.495 3-1-0.489-0.971-0.489-0.971-0.988-1.96-1.32-3.97-1.27-7.51-1.2-11.7 6.45e-4 -0.763 0.00129-1.53 0.00195-2.31 0.0258-3.27 0.146-5.94 1.19-9.06h6c-0.66 1.65-1.32 3.3-2 5h13v-5h3v-29h2c-0.0206-0.969-0.0412-1.94-0.0625-2.94 0.523-4.06 2.54-5.74 5.5-8.44 4.2-3.85 5.32-6.27 6.04-11.8 0.171-0.601 0.343-1.2 0.52-1.82 2.9-1.51 4.77-2 8-2v4c0.33-0.99 0.66-1.98 1-3 0.99-0.33 1.98-0.66 3-1 0.495 2.48 0.495 2.48 1 5 2.97 0.495 2.97 0.495 6 1v-2h-5c0.416-2.41 0.664-3.69 2.5-5.38 2.14-2.32 2.16-4.56 2.5-7.62z" fill="#00643D"/>
<path transform="translate(978 1029)" d="m0 0c4.77 5.34 8.95 11.2 12.7 17.3 5.73 7.76 14.7 9.94 23.5 12.8 1.31 0.441 2.63 0.883 3.94 1.33 3.49 1.18 6.99 2.33 10.5 3.49 0.963 0.355 1.93 0.71 2.92 1.08 6.93 2.08 14.2 2.17 21.4 2.46 0.994 0.0415 1.99 0.0831 3.01 0.126 11.2 0.441 22.4 0.62 33.6 0.788 6.13 0.0938 12.3 0.204 18.4 0.313 2.38 0.042 4.75 0.084 7.13 0.126 1.12 0.0199 2.24 0.0397 3.39 0.0602 2.91 0.0511 5.82 0.1 8.74 0.149 4.42 0.0758 8.84 0.176 13.3 0.282 1.85 0.028 1.85 0.028 3.75 0.0566 1.1 0.0303 2.2 0.0606 3.34 0.0918 1.39 0.0297 1.39 0.0297 2.81 0.0601 2.76 0.501 3.65 1.17 5.3 3.42 0.402 1.7 0.402 1.7 0.812 3.44 1.43 4.28 3.33 5.59 7.19 7.56 3.72 1.43 7.54 2.52 11.4 3.62 5.26 1.62 8.72 3.46 12.6 7.38 0.371 1.42 0.371 1.42 0.75 2.88 1.78 4.45 4.95 5.94 8.94 8.41 2.39 1.77 3.26 2.97 4.31 5.71-4.02 3.5-10.4 9-16 9-0.399 4.78-0.528 8.59 1.94 12.8 2.04 3.53 2.34 6.31 2.5 10.4 0.219 5.05 0.219 5.05 3.06 9 0.825 0.598 1.65 1.2 2.5 1.81l1 1c1.11 0.103 2.23 0.206 3.38 0.312 3.62 0.688 3.62 0.688 5.56 2.44 1.23 2.6 1.3 4.4 1.06 7.25 1.2 0.0825 2.39 0.165 3.62 0.25 4.31 0.517 6.81 2.27 10.4 4.75 4.8 1.12 9.48 1.12 14.4 1.06 1.1-0.00677 1.1-0.00677 2.23-0.0137 1.8-0.0117 3.6-0.0296 5.39-0.0488 0.33 0.99 0.66 1.98 1 3 1.93 0.88 1.93 0.88 4.25 1.44 3.98 1.2 6.71 2.63 9.75 5.56v1c1.08 0.11 2.15 0.219 3.26 0.332 9.08 0.967 17.9 2.19 26.7 4.67 0.917 0.241 1.83 0.482 2.78 0.73 6.06 1.94 9.32 4.78 12.7 10.2 3.46 7.04 5.44 14.6 7.29 22.2 1.46 5.96 3.54 10.6 6.93 15.7 2.58 4.33 2.4 8.22 2.3 13.2-2.85 1.43-5.19 0.94-8.38 0.812-12.7-0.232-25.6 2.63-37.3 7.32-2.93 1.11-5.85 1.75-8.92 2.38-14.3 2.09-14.3 2.09-25.4 9.49-0.99-0.33-1.98-0.66-3-1 0.33-0.33 0.66-0.66 1-1-3.63-0.99-7.26-1.98-11-3-0.66-2.97-1.32-5.94-2-9-1.32-0.33-2.64-0.66-4-1v-2h-2v-3c-1.32-0.66-2.64-1.32-4-2 0.33-0.66 0.66-1.32 1-2 1.32 0.66 2.64 1.32 4 2v-2h2v2h2v-3c-1.32-0.66-2.64-1.32-4-2v-2h-2c-0.33 0.99-0.66 1.98-1 3v-14h-3v16c-2-2-2-2-2.2-5.26 0.0348-1.91 0.0348-1.91 0.0703-3.87 0.018-1.28 0.0361-2.56 0.0547-3.88 0.0348-1.48 0.0348-1.48 0.0703-2.99h-3c-0.33-3.63-0.66-7.26-1-11-0.99-0.33-1.98-0.66-3-1v-3c-0.869 0.0232-1.74 0.0464-2.63 0.0703-1.15 0.018-2.3 0.0361-3.49 0.0547-1.14 0.0232-2.27 0.0464-3.45 0.0703-3.49-0.199-6.19-0.943-9.43-2.2v-2h-2c-0.33 0.99-0.66 1.98-1 3h-6c-0.33-0.99-0.66-1.98-1-3-7.68-1.34-15.7-2.28-23 1l-2 2c-2.94 0.312-2.94 0.312-6 0-0.459-0.518-0.918-1.04-1.39-1.57-0.531-0.472-1.06-0.944-1.61-1.43-2.34 0.0761-2.34 0.0761-4.81 0.812-3.84 0.916-7.22 1.4-11.2 1.19v-2c-0.969-0.268-1.94-0.536-2.94-0.812-1.01-0.392-2.02-0.784-3.06-1.19-0.33-0.99-0.66-1.98-1-3h-2c-0.33-0.99-0.66-1.98-1-3-1.63-1.06-3.31-2.04-5-3-1.28-0.836-2.55-1.69-3.81-2.56-0.605-0.414-1.21-0.828-1.83-1.25-0.447-0.391-0.895-0.781-1.36-1.18v-2h-2v-2c-1.28 0.103-2.56 0.206-3.88 0.312-5.72 0.0182-10.5-2.04-15.1-5.31-0.33-0.99-0.66-1.98-1-3-2-1.21-2-1.21-4-2v-2h-3c-1.59-1.92-3.01-3.83-4.44-5.88-18.4-25-53.3-37.4-80.8-49.9-5.95-2.7-11.9-5.47-17.8-8.26-0.856-0.401-1.71-0.802-2.59-1.21-7.77-3.75-15.1-8.24-22.4-12.8-1.06-0.651-2.12-1.3-3.21-1.97-7.73-4.93-14.3-10.6-20.8-17-0.766-0.741-1.53-1.48-2.32-2.25-7.77-8.05-13.3-19.6-14.7-30.8 0.493-8.09 3.5-15 9-21 16.1-13.6 47.9-12.4 63.4 1.06z" fill="#6E7172"/>
<path transform="translate(644,865)" d="m0 0c0.701 0.186 1.4 0.371 2.12 0.562 2.88 0.647 2.88 0.647 5.62-0.375 4.49-0.259 6.71 1.43 10.3 4 2.74 2.52 3.62 5.38 4.96 8.81 2.99 3.51 5.56 5.8 10.2 6.44 2.71-0.367 2.71-0.367 4.88-1 2.53-0.571 4.45-0.0595 6.94 0.562v2c0.581-0.187 1.16-0.374 1.76-0.566 3.77-0.731 6.95 0.843 10.2 2.57 1.77 1.4 3.41 2.91 5.07 4.44 7 5.65 14.6 7.65 23.4 8 5.16 0.236 10.1 0.538 15.2 1.62 11 2.23 21.9 0.947 32.9-0.82 3.6-0.252 5.24 0.324 8.46 1.76 0.99-0.33 1.98-0.66 3-1 0.986 4.11 1.13 7.97 1.12 12.2 0.00258 1.23 0.00516 2.46 0.00781 3.73-0.133 3.08-0.133 3.08-1.13 5.08-0.188 1.72-0.322 3.44-0.43 5.16-0.0715 1.09-0.143 2.17-0.217 3.29-0.0755 1.19-0.151 2.38-0.229 3.61-1.43 21.1-3.26 42.2-5.69 63.2-0.115 1.02-0.229 2.05-0.347 3.1-0.114 0.941-0.227 1.88-0.344 2.85-0.0961 0.811-0.192 1.62-0.291 2.46-0.509 2.62-1.4 4.9-2.45 7.34-9.56 0.202-18.6 0.264-28-2v-2c-0.662-0.175-1.32-0.35-2.01-0.531-6.85-1.84-13.6-3.86-20.4-6.03-1.07-0.342-2.13-0.684-3.23-1.04-23.3-7.55-46.4-15.8-69.4-24.4v-3h2c-0.474-0.454-0.949-0.908-1.44-1.38-1.56-1.62-1.56-1.62-2.56-3.62-0.99 0.495-0.99 0.495-2 1-0.652 2.02-0.652 2.02-1 4-1.44-0.426-2.88-0.866-4.31-1.31-0.801-0.244-1.6-0.487-2.43-0.738-2.36-0.991-3.6-2.03-5.26-3.95 0.66-0.66 1.32-1.32 2-2 0.99 0.33 1.98 0.66 3 1-0.278-0.928-0.278-0.928-0.562-1.88-0.438-2.12-0.438-2.12 0.562-4.12h-3v-2c-0.577-0.289-1.15-0.577-1.75-0.875-1.44-0.721-2.88-1.45-4.31-2.19-2.07-1.05-2.07-1.05-4.94-1.94v-2h2c-3.57-6.1-8.39-10.4-14.1-14.5-1.88-1.48-1.88-1.48-3.88-4.48-0.66-0.165-1.32-0.33-2-0.5-2-0.5-2-0.5-4-3.5-0.66-0.33-1.32-0.66-2-1v-2c-0.804-0.34-0.804-0.34-1.62-0.688-3.13-1.73-5.64-4.02-8.38-6.31-1.65-1.03-3.32-2.03-5-3-5.77-3.33-5.77-3.33-6.88-6.56-0.127-2.48-0.125-4.95-0.125-7.44 4.63-0.323 7.28 0.155 11 3v2h2v2l-2 1v2h2v2c1.65 0.33 3.3 0.66 5 1v2l2-1c-0.66-1.32-1.32-2.64-2-4 2.1 0.033 4.21 0.102 6.31 0.188 1.17 0.0348 2.34 0.0696 3.55 0.105 3.14 0.707 3.14 0.707 4.87 3.2 0.419 0.829 0.838 1.66 1.27 2.51 0.99 0.33 1.98 0.66 3 1v2c0.782 0.182 1.56 0.364 2.37 0.551 1.01 0.251 2.02 0.503 3.07 0.762 1.01 0.244 2.02 0.487 3.06 0.738 0.826 0.313 1.65 0.626 2.5 0.949 0.33 0.99 0.66 1.98 1 3 2.97 0.495 2.97 0.495 6 1-0.66 1.32-1.32 2.64-2 4h2c1.88-3.87 1.88-3.87 1-8 0.763-0.577 1.53-1.15 2.31-1.75 4.1-3.99 4.63-9.84 5.69-15.2 1.77-0.168 3.54-0.335 5.31-0.5 0.986-0.0928 1.97-0.186 2.99-0.281 2.7-0.219 2.7-0.219 5.7-0.219-0.33 1.65-0.66 3.3-1 5 1.98-0.66 3.96-1.32 6-2-1.98-0.495-1.98-0.495-4-1v-3c0.804-0.289 1.61-0.577 2.44-0.875 2.7-0.858 2.7-0.858 3.56-3.12h2c-2.29-7.24-5.5-10.9-12.1-14.4-1.22-0.613-2.44-1.23-3.66-1.84-3.06-1.67-4.9-3.3-7.28-5.79-0.99-0.33-1.98-0.66-3-1v-2c-0.99-0.33-1.98-0.66-3-1-0.688-2.06-0.688-2.06-1-4 6.75 1.88 6.75 1.88 9 3v-2h-2v-2c-0.66-0.33-1.32-0.66-2-1-0.722-1.64-1.39-3.31-2-5z" fill="#00623B"/>
<path transform="translate(394,1171)" d="m0 0h4v2h2v2c2.31 0.66 4.62 1.32 7 2-3.27 1.88-6.28 2.49-10 3 4.95 0.99 4.95 0.99 10 2v1c-2.31 0.33-4.62 0.66-7 1 3 2 3.93 2.29 7.34 2.56 0.834 0.0748 1.67 0.15 2.53 0.227 0.868 0.0696 1.74 0.139 2.63 0.211 1.72 0.138 3.44 0.283 5.16 0.438 1.14 0.0909 1.14 0.0909 2.31 0.184 2.04 0.379 2.04 0.379 5.04 2.38-1.98 0.66-3.96 1.32-6 2 1.13 0.454 2.27 0.908 3.44 1.38 3.56 1.62 3.56 1.62 4.56 3.62 2.55 0.312 5 0.513 7.56 0.625 0.711 0.0387 1.42 0.0773 2.15 0.117 1.76 0.0945 3.52 0.177 5.28 0.258 1.26 3.77 1.37 7.36 1.62 11.3 0.377 2.68 1.14 4.33 2.38 6.69v3h3c0.413 0.763 0.825 1.53 1.25 2.31 2.33 3.59 4.81 4.21 8.75 5.69 0.99 0.66 1.98 1.32 3 2v2h2v2c0.619 0.0825 1.24 0.165 1.88 0.25 2.12 0.75 2.12 0.75 3.28 2.44 1.07 2.92 0.835 4.99 0.469 8.06-0.111 0.985-0.222 1.97-0.336 2.98-0.0954 0.748-0.191 1.5-0.289 2.27h-2c-0.33 0.99-0.66 1.98-1 3h-3v10h-2c0.0412 1.05 0.0825 2.1 0.125 3.19-0.118 3.61-0.707 5.58-2.12 8.81-2.94 0.027-5.87 0.0468-8.81 0.0625-1.25 0.0126-1.25 0.0126-2.53 0.0254-1.2 0.00483-1.2 0.00483-2.43 0.00977-0.738 0.00524-1.48 0.0105-2.24 0.0159-1.99-0.114-1.99-0.114-4.99-1.11v-2c-1.65-0.33-3.3-0.66-5-1v-2c-2.94 0.184-2.94 0.184-6 1-1.44 1.95-1.44 1.95-2 4-1.05-0.0206-2.1-0.0412-3.19-0.0625-3.14 0.0515-5.78 0.328-8.81 1.06v2c1.98 0.495 1.98 0.495 4 1-3.98 1.33-5.21 0.82-9-1-1.08-1.24-2.12-2.51-3.12-3.81-7.12-8.64-20.1-10.6-30.5-13.3-2.49-0.668-4.98-1.34-7.48-2.01-1.76-0.472-1.76-0.472-3.55-0.954-13-3.54-13-3.54-14.3-4.91-1.76-0.146-3.52-0.227-5.28-0.281-1.61-0.0561-1.61-0.0561-3.24-0.113-1.13-0.0348-2.25-0.0696-3.42-0.105-2.22-0.0687-4.44-0.141-6.65-0.219-1.48-0.0454-1.48-0.0454-3-0.0918-2.41-0.189-2.41-0.189-4.41-1.19-0.321-5.34 0.391-8.36 3-13 2.93-6.32 4.79-12.8 6.66-19.5 1.41-4.87 3.09-9.25 5.46-13.7 1.42-2.8 2.16-5.73 2.97-8.75 1.19-2.61 2.48-3.45 4.91-4.98 2.7-0.768 2.7-0.768 5.75-1.32 1.1-0.207 2.2-0.414 3.34-0.627 1.15-0.204 2.29-0.409 3.47-0.619 2.27-0.412 4.55-0.83 6.82-1.25 1.51-0.27 1.51-0.27 3.05-0.545 2.79-0.538 2.79-0.538 5.57-2.64 2.38 0.312 2.38 0.312 5 1 0.928 0.186 1.86 0.371 2.81 0.562 0.722 0.144 1.44 0.289 2.19 0.438 0.0412-0.763 0.0825-1.53 0.125-2.31 0.875-2.69 0.875-2.69 3.75-4.19 1.03-0.495 2.06-0.99 3.12-1.5 1.01-1.66 2.01-3.33 3-5z" fill="#6E7172"/>
<path transform="translate(1119,621)" d="m0 0c0.99 1.49 0.99 1.49 2 3 0.66-0.33 1.32-0.66 2-1 0.0606 0.626 0.121 1.25 0.184 1.9 0.0838 0.817 0.168 1.63 0.254 2.48 0.0812 0.812 0.162 1.62 0.246 2.46 0.207 2.21 0.207 2.21 1.32 4.16h2c1.33 6.97 1.09 13.9 1 21h-2c0.33 0.99 0.66 1.98 1 3-0.922 2.37-1.92 4.7-3 7-1.65-0.33-3.3-0.66-5-1 0.33 4.62 0.66 9.24 1 14h1c0.33-1.98 0.66-3.96 1-6h1c0.33 4.29 0.66 8.58 1 13-0.99 0.495-0.99 0.495-2 1-0.797 2.17-0.797 2.17-1.4 4.81-0.251 0.994-0.501 1.99-0.76 3.01-0.256 1.05-0.512 2.1-0.775 3.18-2.39 9.65-5 18.9-9.06 28h-2c0.33 0.99 0.66 1.98 1 3-0.75 3.63-0.75 3.63-2 7-0.99 0.33-1.98 0.66-3 1v5c-0.99 0.33-1.98 0.66-3 1-0.954 1.96-0.954 1.96-1.56 4.31-1.11 3.78-2.54 7.06-4.44 10.5-1.07 2.34-1.72 4.7-2.42 7.17-1.03 3.54-2.2 7.03-3.4 10.5-0.235 0.721-0.471 1.44-0.713 2.18-1.77 5.14-4.02 9.09-7.47 13.3h-2v3h-2c-0.206 0.681-0.412 1.36-0.625 2.06-1.53 3.26-3.41 5.46-5.84 8.09-1.63 1.86-1.63 1.86-2.98 4.29-1.61 2.65-3.39 4.73-5.49 7-2.35 2.58-4.29 4.92-6.19 7.88-2.67 3.83-5.99 5.82-10.2 7.75-2.05 0.888-2.05 0.888-2.69 3.94-1.75 1.36-1.75 1.36-4 2.75-5.87 3.76-11.6 7.75-16.4 12.8-3.05 2.97-6.36 5.21-9.88 7.6-2.74 1.94-5.3 4.01-7.88 6.15-2.87 2.35-5.41 4.21-8.88 5.56-1.45 0.588-1.45 0.588-2.94 1.19-0.33 0.99-0.66 1.98-1 3-0.866-0.34-0.866-0.34-1.75-0.688-2.36-0.583-2.36-0.583-4.38 1.12-0.619 0.516-1.24 1.03-1.88 1.56h-2c-1.63 1.46-1.63 1.46-3 3 0.33 0.66 0.66 1.32 1 2-1.08-0.371-1.08-0.371-2.19-0.75-2.98-0.574-2.98-0.574-5.5 1.69-0.763 0.681-1.53 1.36-2.31 2.06h-2v2c-1.28-0.0619-2.56-0.124-3.88-0.188-6.23 0.646-8.93 4.8-12.8 9.38-2.87 3.41-5.84 6.09-9.37 8.81h-2c-0.247 0.578-0.495 1.16-0.75 1.75-1.25 2.25-1.25 2.25-3.25 4.19-3.3 3.41-3.98 6.88-4.75 11.4-0.959 5.16-2.87 9.69-4.93 14.5-2.45 5.94-3.77 12-4.85 18.3-0.415 2.21-0.415 2.21-1.47 5.81-2.04 1.27-2.04 1.27-4 2-2.82 6.05-2.22 13.5-2 20h-2c0.66 2.97 1.32 5.94 2 9h2c2.03 3.73 3 5.67 3 10h1c0.33-0.66 0.66-1.32 1-2 1.96-0.379 1.96-0.379 4.38-0.562 2.82-0.225 4.91-0.533 7.62-1.44 0.66 0.66 1.32 1.32 2 2-2.8 1.22-5.4 2.09-8.39 2.75-7.16 1.75-13.9 4.95-20.7 7.79-1.08 0.442-2.15 0.884-3.26 1.34-0.97 0.406-1.94 0.812-2.94 1.23-2.78 0.899-4.84 1.14-7.74 0.886-1.92-1.92-1.17-5.33-1.19-7.88 0.0359-16.6 1.93-32.9 7.97-48.5 2.94-7.71 5.41-15.5 7.8-23.4 3.54-11.6 7.22-23.2 11.5-34.6 0.525-1.51 0.525-1.51 1.06-3.05 2.94-7.53 6.78-10.1 13.9-13.6 2.13-1.19 4.26-2.38 6.39-3.59 2.29-1.26 4.57-2.53 6.86-3.79 1.21-0.673 2.43-1.35 3.64-2.02 4.77-2.65 9.53-5.29 14.3-7.9 20.1-11.1 38-25.4 55.3-40.4 1.2-1.04 2.41-2.07 3.63-3.09 4.55-3.85 8.79-8 13-12.2 0.595-0.582 1.19-1.16 1.8-1.76 3.34-3.34 6.16-6.72 8.82-10.6 1.8-2.46 4.01-4.49 6.19-6.62 12-14.2 21.9-29.8 31-46 0.407-0.716 0.814-1.43 1.23-2.17 21.5-38.2 29.4-76.9 33.8-120z" fill="#035B35"/>
<path transform="translate(418,1319)" d="m0 0c1.32 0.33 2.64 0.66 4 1v2c0.722-0.0412 1.44-0.0825 2.19-0.125 3.02 0.134 5.08 0.877 7.81 2.12-0.66 0.66-1.32 1.32-2 2-0.99-0.33-1.98-0.66-3-1 0.723 3.3 0.723 3.3 4.06 4.69 4.1 1.62 7.56 1.61 11.9 1.31 0.66-0.33 1.32-0.66 2-1 2.21-0.0709 4.42-0.0842 6.62-0.0625 1.19 0.00902 2.38 0.018 3.6 0.0273 0.915 0.0116 1.83 0.0232 2.77 0.0352 0.147 0.626 0.294 1.25 0.445 1.9 0.689 2.51 1.39 4.77 2.55 7.1 3.03 1.68 3.03 1.68 6 2v2c1.32 0.66 2.64 1.32 4 2v2h2c0.99 3.96 0.99 3.96 2 8h2c0.495 3.96 0.495 3.96 1 8h2v2h3c2.36 2.53 3 3.47 3 7h2v2c0.619 0.289 1.24 0.578 1.88 0.875 3.67 1.94 4.55 3.93 5.75 7.75 0.26 0.817 0.521 1.63 0.789 2.48 0.193 0.626 0.387 1.25 0.586 1.9 0.99-1.32 1.98-2.64 3-4 0.454 0.784 0.908 1.57 1.38 2.38 1.51 2.66 1.51 2.66 3.62 4.62 0.667 1.61 1.29 3.24 1.88 4.88 1.52 3.98 3.05 6.16 6.12 9.12 0.75 3.25 0.75 3.25 1 6-1.08 0.383-2.16 0.766-3.28 1.16-5.58 2.1-10.9 4.69-16.3 7.28-1.5 0.716-1.5 0.716-3.04 1.45-4.18 2-8.26 3.98-12.2 6.46-3.85 1.97-5.95 2.22-10.2 1.65-2.64-1.04-4.96-2.1-7.44-3.44-0.69-0.361-1.38-0.721-2.09-1.09-2.17-1.14-4.32-2.3-6.47-3.47-0.678-0.358-1.36-0.716-2.06-1.08-8.13-4.29-15.6-9-23-14.6-9.48-7.11-19.8-13-29.9-19.1-2.9-1.76-5.79-3.52-8.68-5.28-1.34-0.804-1.34-0.804-2.71-1.62-0.83-0.507-1.66-1.01-2.52-1.54-1.1-0.661-1.1-0.661-2.21-1.34-2.12-1.58-3.45-3.26-4.94-5.44 4.08-4.73 8.23-9.39 12.4-14 0.477-0.525 0.954-1.05 1.44-1.59 2.57-2.81 5.22-5.43 8.06-7.97 6.19-6.02 10.3-14 14.7-21.4 1.34-2.11 2.79-4.09 4.32-6.07z" fill="#6E7172"/>
<path transform="translate(1217,1310)" d="m0 0h2c0.436 0.88 0.871 1.76 1.32 2.67 3.24 6.33 5.93 11 11.7 15.3 2.28 3.54 2.98 5.65 3.19 9.89 0.419 3.6 0.74 4.05 3.5 6.8 1.13 0.792 2.27 1.56 3.43 2.31 1.19 0.843 2.38 1.69 3.57 2.55 0.859 0.618 0.859 0.618 1.73 1.25 5.33 4.08 8.92 9.67 12.6 15.2 0.743 0.681 1.49 1.36 2.25 2.06 1.75 1.94 1.75 1.94 2 4.69-0.0825 0.743-0.165 1.48-0.25 2.25-0.534 0.231-1.07 0.461-1.62 0.699-8.72 3.82-16.8 7.75-24.6 13.4-3.29 2.26-6.69 4.25-10.1 6.25-4.87 2.85-9.3 5.86-13.7 9.44-9.13 7.38-19.7 12.7-30 18.2-0.875 0.494-1.75 0.988-2.65 1.5-5.47 2.97-9.12 4.36-15.3 3.5-2.81-0.919-5.37-2.15-8-3.5-0.732-0.358-1.46-0.716-2.22-1.08-3.67-1.8-7.3-3.68-10.9-5.59-8.81-4.61-17.1-7.7-26.9-9.83 0.33-0.99 0.66-1.98 1-3 7.35-0.202 13.9-0.212 21 2v-8c1.48-0.495 1.48-0.495 3-1 0.495-1.48 0.495-1.48 1-3h2v3h2c0.495-1.48 0.495-1.48 1-3 2.9-2.04 5.51-3.35 9-4 0.495-1.98 0.495-1.98 1-4-0.619 0.309-1.24 0.619-1.88 0.938l-4.12 2.06c1.08-2.52 1.97-3.98 4.06-5.81 2.59-2.92 2.64-5.37 2.94-9.19h4c0.66-2.64 1.32-5.28 2-8h2c0.227-0.928 0.454-1.86 0.688-2.81 1.31-3.19 1.31-3.19 3.81-4.44 3.11-2.18 3.04-3.17 3.69-6.81 0.117-0.878 0.235-1.76 0.355-2.66 0.457-2.28 0.457-2.28 2.46-4.28h3c0.186-0.804 0.186-0.804 0.375-1.62 0.747-2.84 1.68-5.6 2.62-8.38 1.16-0.0387 1.16-0.0387 2.34-0.0781 1-0.0567 2.01-0.113 3.04-0.172 0.998-0.0464 2-0.0928 3.02-0.141 2.75-0.331 2.75-0.331 3.95-2.66 0.214-0.645 0.428-1.29 0.648-1.95h2c0.33-2.31 0.66-4.62 1-7 1.32-0.33 2.64-0.66 4-1 0.144-0.639 0.289-1.28 0.438-1.94 0.562-2.06 0.562-2.06 1.56-3.06 2.65-0.455 5.32-0.702 8-1v-3c-0.99-0.495-0.99-0.495-2-1h4v-3z" fill="#6E7172"/>
<path transform="translate(407,627)" d="m0 0h1c0.164 1.18 0.164 1.18 0.332 2.39 0.821 5.64 1.75 11.2 3.17 16.7 1.38 5.69 2.03 11.3 2.56 17.1 1.13 12.1 2.92 22 8.94 32.8 0.66 0.33 1.32 0.66 2 1 4.09 6.33 6.39 12.9 7.94 20.2 1.69 8.02 3.77 15.7 8.06 22.8 1.41 2.87 2.73 5.78 4.06 8.69 4.19 8.99 8.88 17.6 13.8 26.2 1.79 3.17 3.55 6.37 5.29 9.57 0.559 1.02 1.12 2.04 1.7 3.09 1.18 2.41 1.18 2.41 1.18 4.41h2c0.66 2.64 1.32 5.28 2 8h2c0.66 1.98 1.32 3.96 2 6h2v3h2v3h2c0.41 0.782 0.82 1.56 1.24 2.37 0.539 1.01 1.08 2.02 1.63 3.07 0.534 1.01 1.07 2.02 1.62 3.06 1.26 2.61 1.26 2.61 3.51 3.5 0.727 1.98 1.4 3.98 2 6h2c1.52 1.91 1.52 1.91 3.25 4.5 2.28 3.35 4.58 6.68 7 9.94 0.688 0.926 0.688 0.926 1.39 1.87 1.34 1.73 1.34 1.73 2.95 3.27 1.41 1.43 1.41 1.43 2.79 3.8 1.59 2.8 1.59 2.8 4.31 5.31 2.31 2.31 2.31 2.31 2.31 4.31 0.835 0.34 0.835 0.34 1.69 0.688 2.94 1.67 4.93 3.93 7.31 6.31 0.928 0.557 1.86 1.11 2.81 1.69 0.722 0.433 1.44 0.866 2.19 1.31v2c2.2 1.12 4.41 2.18 6.66 3.19 6.71 3.11 11.8 6.64 17.1 11.8 1.89 1.75 3.61 3.01 5.83 4.29 0.784 0.578 1.57 1.16 2.38 1.75 0.375 2.75 0.375 2.75 0 5h2c-0.33 0.99-0.66 1.98-1 3 2.32 1.63 2.32 1.63 5 3 0.99-0.33 1.98-0.66 3-1 7.41 1.1 13 5.75 19 10 0.993 0.703 1.99 1.41 3.01 2.13 4.82 3.46 9.46 7.04 14 10.9 0.66 0.33 1.32 0.66 2 1v3c0.763-0.103 1.53-0.206 2.31-0.312 0.887 0.103 1.77 0.206 2.69 0.312 1.01 1.66 2.01 3.33 3 5 1.42 1.19 2.89 2.33 4.38 3.44 3.86 2.89 6.81 5.65 9.62 9.56v2h-2v2c0.701-0.103 1.4-0.206 2.12-0.312 4.24 0.461 5.85 2.36 8.88 5.31v2h3v6c-1.32 0.33-2.64 0.66-4 1v2c0.626 0.205 1.25 0.41 1.9 0.621 1.23 0.404 1.23 0.404 2.48 0.816 0.812 0.267 1.62 0.534 2.46 0.809 2.16 0.754 2.16 0.754 4.16 1.75v-6h5c-0.33 0.99-0.66 1.98-1 3 0.99 0.33 1.98 0.66 3 1v2h-2v3c0.835 0.104 1.67 0.209 2.53 0.316 3.88 0.765 7.33 2.11 11 3.62 9.7 3.9 19.6 7.17 29.5 10.4 7.2 2.36 14.4 4.83 21.5 7.4 5.93 2.11 11.9 4.08 17.9 6.06 1.22 0.407 2.45 0.813 3.71 1.23 2.97 0.986 5.94 1.97 8.91 2.96-3.36 1.12-4.17 0.891-7.45-0.082-0.914-0.268-1.83-0.535-2.77-0.811-0.999-0.303-2-0.607-3.03-0.92-1.05-0.312-2.09-0.624-3.17-0.945-12.8-3.85-25.5-7.97-38.2-12.1-2.88-0.943-5.77-1.88-8.65-2.81-41.2-13.4-78-32.1-113-57.9-2.54-1.87-5.12-3.68-7.69-5.51-5.76-4.19-11.1-8.8-16.5-13.5-1.59-1.36-3.21-2.69-4.83-4.02-7.84-6.47-15.1-13.5-22.3-20.7-0.709-0.708-0.709-0.708-1.43-1.43-5.6-5.6-11-11.3-16.1-17.3-0.949-1.08-1.9-2.17-2.85-3.25-7.8-8.94-15.1-18.2-22.1-27.8-0.446-0.592-0.892-1.18-1.35-1.8-40-53.3-82.5-141-73.1-210 0.165-0.763 0.33-1.53 0.5-2.31z" fill="#035B35"/>
<path transform="translate(695,1367)" d="m0 0v2c0.906 0.11 1.81 0.219 2.75 0.332 16.1 2.1 16.1 2.1 20.3 4.67 0.73 2.1 0.73 2.1 1 4 1.1-0.087 1.1-0.087 2.23-0.176 8.04-0.372 8.04-0.372 12 2.55 1.81 2.62 1.81 2.62 1.81 4.62 0.562 0.122 1.12 0.245 1.7 0.371 2.49 0.681 4.7 1.62 7.05 2.69 0.799 0.362 1.6 0.724 2.42 1.1 0.603 0.277 1.21 0.554 1.83 0.84v3h3c0.0825 0.619 0.165 1.24 0.25 1.88 0.563 2.31 0.563 2.31 2.81 3.38 0.639 0.247 1.28 0.495 1.94 0.75v2h2c0.277 0.626 0.554 1.25 0.84 1.9 0.543 1.23 0.543 1.23 1.1 2.48 0.539 1.22 0.539 1.22 1.09 2.46 0.63 1.4 1.29 2.79 1.97 4.16 0.375 6.75-0.363 13.4-2 20-0.66 0.66-1.32 1.32-2 2-0.465 3.12-0.465 3.12-0.625 6.62-0.112 1.78-0.112 1.78-0.227 3.6-0.0735 1.37-0.0735 1.37-0.148 2.77h-2v2h-18v-2c-0.603-0.193-1.21-0.387-1.83-0.586-0.799-0.26-1.6-0.521-2.42-0.789-1.18-0.383-1.18-0.383-2.39-0.773-2.23-0.803-4.27-1.75-6.36-2.85v-2h-2v-2h-2v-2c1.98 0.495 1.98 0.495 4 1-1.32-0.99-2.64-1.98-4-3 3.75-1.12 3.75-1.12 6 0-0.33-0.33-0.66-0.66-1-1v-2c-3.96-0.99-7.92-1.98-12-3 1.32 0.66 2.64 1.32 4 2 0.75 2.62 0.75 2.62 1 5-3.41-0.787-6.69-1.87-10-3v-2c-1.32-0.33-2.64-0.66-4-1v-2c-3.3-0.99-6.6-1.98-10-3v-2c-0.908-0.247-1.82-0.495-2.75-0.75-3.47-1.34-4.98-2.34-7.25-5.25-1.25-3.25-1.25-3.25-2-6-0.866 0.0412-1.73 0.0825-2.62 0.125-3.5-0.13-6.12-0.885-9.38-2.12-0.33 1.32-0.66 2.64-1 4-5.47 1.47-8.12 0.44-13-2v-5h2c0.66-1.32 1.32-2.64 2-4h2v-3h-2c-1.59-4.18-2.21-7.53-2-12h2v-3h2c0.402-1.64 0.402-1.64 0.812-3.31 1.58-4.92 1.58-4.92 4.19-6.69h3c0.124-0.639 0.247-1.28 0.375-1.94 0.206-0.681 0.413-1.36 0.625-2.06 0.66-0.33 1.32-0.66 2-1v5h2c0.681-1.89 0.681-1.89 1-4-0.66-0.66-1.32-1.32-2-2 14-4 14-4 20 0z" fill="#6E7172"/>
<path transform="translate(520,649)" d="m0 0h1c0.115 0.596 0.23 1.19 0.348 1.81 6.03 30.9 14.8 60.4 29.7 88.3 1.05 1.99 2.05 4 3.05 6.01 5.37 10.7 11.8 20.3 18.9 29.9 0.478 0.636 0.955 1.27 1.45 1.93 5.45 7.19 11.2 14 17.3 20.6 1.89 2.04 3.7 4.12 5.5 6.25 7.88 9.04 16.5 17.6 25.9 25 2.68 2.12 5.31 4.3 7.93 6.5 5.52 4.52 11.2 8.6 17.2 12.5 1.03 0.686 2.07 1.37 3.13 2.08 38.3 25 80.6 38.2 125 48.2 3.92 0.914 7.81 1.88 11.7 2.87v2c-0.99 0.33-1.98 0.66-3 1-0.571-0.327-1.14-0.655-1.73-0.992-3.38-1.5-5.96-0.712-9.58-0.133-10.7 1.54-21 1.93-31.6-0.379-3.29-0.53-6.48-0.678-9.81-0.79-7.54-0.254-13.7-0.628-20.3-4.71-0.715-0.407-1.43-0.815-2.17-1.23-3-1.77-5.45-3.33-7.77-5.95-3.49-3.07-8.47-3.81-13.1-3.81v-2h-6v1c-4.14 0.603-7.57 0.825-11.3-1.31-3.48-2.9-5.48-5.08-7.23-9.31-1.8-4.04-3.54-5.44-7.31-7.58-3.63-1.31-6.43-0.471-10.2 0.207-5.51-0.941-8.8-5.73-12-10-0.334-0.67-0.668-1.34-1.01-2.03-1.45-2.89-3.58-5.01-5.75-7.38-1.24-1.59-1.24-1.59-1.24-3.59h-3v1c-3.06 0.5-3.06 0.5-7 0-3.98-3.09-6.77-6.26-7.44-11.3 0.144-0.887 0.289-1.77 0.438-2.69 0.314-3.16 0.314-3.16-2.06-5.56-3.27-2.71-5.89-3.35-9.94-4.44-0.33-0.99-0.66-1.98-1-3-2.29-1.61-2.29-1.61-5-3.06-4.9-2.73-4.9-2.73-6-4.94-0.99-0.33-1.98-0.66-3-1v-2h-2c-0.495-3.47-0.495-3.47-1-7h-3c-0.433-0.928-0.433-0.928-0.875-1.88-1.06-2.26-1.06-2.26-3.12-4.12v-2c-2.49-0.687-4.38-1-7-1l-2-4h-2c-1.73-2.55-1.73-2.55-3.62-5.88-0.632-1.09-1.26-2.18-1.91-3.3-1.46-2.82-1.46-2.82-1.46-4.82h-2c-1.3-1.84-1.3-1.84-2.75-4.38-2.09-3.62-4.23-7.2-6.44-10.8-3.63-6.08-6.36-11.6-5.81-18.9-0.607-0.258-1.21-0.516-1.84-0.781-4.98-2.81-7.21-8.82-8.97-14-1.29-4.64-1.31-8.92-1.17-13.7-0.0306-3.89-1.23-6.95-2.99-10.4-1.07-2.2-1.88-4.37-2.66-6.69-0.26-0.764-0.521-1.53-0.789-2.32-0.586-2.12-0.586-2.12-0.586-5.12 0.66-0.66 1.32-1.32 2-2 0.843-8.44-0.178-17-1.38-25.3-0.476-3.47-0.859-6.35 0.376-9.69z" fill="#035B35"/>
<path transform="translate(510,1098)" d="m0 0v10h5c0.214-0.645 0.428-1.29 0.648-1.95 1.35-2.05 1.35-2.05 3.89-2.66 1.02-0.0464 2.04-0.0928 3.09-0.141 1.07-0.0541 2.14-0.108 3.25-0.164 1.55-0.0425 1.55-0.0425 3.12-0.0859 0.825-0.0284 1.65-0.0567 2.5-0.0859 5.14-0.0945 5.14-0.0945 7.5 1.09v3c1.32 0.66 2.64 1.32 4 2v2h2c0.0606 0.782 0.121 1.56 0.184 2.37 0.0838 1.01 0.168 2.02 0.254 3.07 0.0812 1.01 0.162 2.02 0.246 3.06 0.0485 2.44 0.0485 2.44 1.32 3.5 0.141 2.67 0.0425 5.32 0 8h6v3h8c1.42 4.45 1.79 9.08 0 13.4-0.33 0.516-0.66 1.03-1 1.56-0.33-0.99-0.66-1.98-1-3-3.34 2.99-5.15 5.93-7 10h-2c-0.371 0.866-0.371 0.866-0.75 1.75-1.43 2.58-3.03 4.31-5.25 6.25h-2v3h-3 4c1.98-1.28 1.98-1.28 3.75-3 0.614-0.557 1.23-1.11 1.86-1.69 0.459-0.433 0.918-0.866 1.39-1.31-1.56 3.32-3.21 5.56-6 8h-2v3h-4v4c-4.42 1.1-8.47 1.15-13 1-1-1-1-1-1.1-3.29 0.0116-0.917 0.0232-1.83 0.0352-2.78 0.00902-0.919 0.018-1.84 0.0273-2.79 0.0116-0.71 0.0232-1.42 0.0352-2.15 0.99-0.33 1.98-0.66 3-1 0.631-1.77 0.631-1.77 1-4 0.655-2 1.32-4 2-6h-4v2h-5v4c-3.34 0.0743-5.8 0.0655-9-1v3h-2c-0.33 1.98-0.66 3.96-1 6h-18v-2h-2c-0.66-2.97-1.32-5.94-2-9h-2c-1.1-3.29-1.1-5.74-1.06-9.19 0.00902-1.09 0.018-2.17 0.0273-3.29 0.0116-0.831 0.0232-1.66 0.0352-2.52h3v-4c-1.39-0.0928-1.39-0.0928-2.81-0.188-3.19-0.812-3.19-0.812-4.94-3.12-0.413-0.887-0.825-1.77-1.25-2.69-0.357-0.614-0.714-1.23-1.08-1.86-1.7-3.97-0.965-8.05 0.082-12.1 2.38-2.81 2.38-2.81 5-5 0.474-0.804 0.949-1.61 1.44-2.44 3.66-6 7.91-9.19 14.6-11.6 1.52-0.588 1.52-0.588 3.06-1.19 3.11-0.86 5.73-0.965 8.94-0.812z" fill="#6E7172"/>
<path transform="translate(1e3 1055)" d="m0 0c3.63 0.655 7.03 1.6 10.5 2.78 1.56 0.523 1.56 0.523 3.15 1.06 1.08 0.364 2.15 0.728 3.26 1.1 1.07 0.36 2.14 0.721 3.25 1.09 2 0.674 4.01 1.35 6.01 2.03 0.926 0.312 1.85 0.624 2.8 0.946 0.942 0.349 1.88 0.698 2.85 1.06 6.95 2.08 14.2 2.18 21.4 2.47 1.49 0.0623 1.49 0.0623 3.01 0.126 11.2 0.441 22.4 0.62 33.6 0.788 6.13 0.0938 12.3 0.204 18.4 0.313 2.38 0.042 4.75 0.084 7.13 0.126 1.12 0.0199 2.24 0.0397 3.39 0.0602 2.91 0.0511 5.82 0.1 8.74 0.149 4.42 0.0758 8.84 0.176 13.3 0.282 1.85 0.028 1.85 0.028 3.75 0.0566 1.1 0.0303 2.2 0.0606 3.34 0.0918 1.39 0.0297 1.39 0.0297 2.81 0.0601 2.76 0.501 3.65 1.17 5.3 3.42 0.402 1.7 0.402 1.7 0.812 3.44 1.43 4.28 3.33 5.59 7.19 7.56 3.72 1.43 7.54 2.52 11.4 3.62 5.26 1.62 8.72 3.46 12.6 7.38 0.247 0.949 0.495 1.9 0.75 2.88 1.78 4.45 4.95 5.94 8.94 8.41 2.39 1.77 3.26 2.97 4.31 5.71-3.57 3.04-7.1 5.21-11.3 7.25-1.6 0.781-1.6 0.781-3.24 1.58-0.808 0.387-1.62 0.773-2.45 1.17-0.784-0.804-1.57-1.61-2.38-2.44-2.34-2.55-2.34-2.55-4.62-3.56v-3c-4.93-2.63-9.56-2.15-15-2 2.97 0.99 5.94 1.98 9 3v1c-6.65 0.25-12.6-0.26-19-2v-2h-2v-4h-8c-0.121-0.603-0.242-1.21-0.367-1.83-0.168-0.799-0.335-1.6-0.508-2.42-0.162-0.789-0.325-1.58-0.492-2.39-0.624-2.33-1.48-4.25-2.63-6.36 0.99 0.33 1.98 0.66 3 1-0.495-0.619-0.99-1.24-1.5-1.88-1.5-2.12-1.5-2.12-1.5-4.12-0.866-0.144-1.73-0.289-2.62-0.438-2.07-0.345-4.13-0.714-6.19-1.12-4.08-0.56-8.08-0.52-12.2-0.438v2c0.949-0.0412 1.9-0.0825 2.88-0.125 3.12 0.125 3.12 0.125 5.12 2.12-11.5 0.932-22.9 1.07-34.5 0.75-1.92-0.0395-1.92-0.0395-3.89-0.0798-1.2-0.0407-2.41-0.0814-3.65-0.123-1.62-0.0488-1.62-0.0488-3.27-0.0986-2.7-0.448-2.7-0.448-4.56-1.75-1.85-2.75-1.32-5.49-1.14-8.7-8.91-2.25-17.9-2.6-27-3v-3h-11v2c1.32-0.33 2.64-0.66 4-1 0.495 1.48 0.495 1.48 1 3h2c0.66 1.32 1.32 2.64 2 4h-3v-3h-6v3c-16.4 1.09-16.4 1.09-23.6-4.69-0.464-0.433-0.928-0.866-1.41-1.31l1-2h3c-0.577-0.557-1.15-1.11-1.75-1.69-2.26-2.32-4.24-4.77-6.25-7.31-0.66-0.66-1.32-1.32-2-2-2.42-2.87-4.47-5.56-6-9z" fill="#6D7071"/>
<path transform="translate(788,904)" d="m0 0c2.47 3.7 2.24 5.66 2.19 10.1-0.00645 1.25-0.0129 2.5-0.0195 3.79-0.168 3.15-0.168 3.15-1.17 5.15-0.188 1.72-0.322 3.44-0.43 5.16-0.0715 1.09-0.143 2.17-0.217 3.29-0.0755 1.19-0.151 2.38-0.229 3.61-1.43 21.1-3.26 42.2-5.69 63.2-0.172 1.53-0.172 1.53-0.347 3.1-0.17 1.41-0.17 1.41-0.344 2.85-0.144 1.22-0.144 1.22-0.291 2.46-0.509 2.62-1.4 4.9-2.45 7.34-9.56 0.202-18.6 0.264-28-2v-2c-0.771-0.17-1.54-0.34-2.34-0.516-1-0.242-2.01-0.485-3.04-0.734-0.998-0.232-2-0.464-3.02-0.703-2.6-1.05-2.6-1.05-3.95-2.98-0.777-2.44-0.798-4.52-0.656-7.06 2.48-0.495 2.48-0.495 5-1-0.99-0.33-1.98-0.66-3-1v-2c-0.66-0.33-1.32-0.66-2-1 2.48-0.495 2.48-0.495 5-1v-1h5c-0.186-0.722-0.371-1.44-0.562-2.19-0.457-2.94-0.173-4.95 0.562-7.81 5.59 1.37 5.59 1.37 7.69 4.62 0.433 0.784 0.866 1.57 1.31 2.38 2.93 0.224 2.93 0.224 5-1 0.33 0.99 0.66 1.98 1 3 2.23-1.47 2.23-1.47 4-4 0.02-1.98 0.02-1.98-0.375-4.06-0.625-3.94-0.625-3.94 1.38-6.94h2c0.155-0.804 0.155-0.804 0.312-1.62 0.688-2.38 0.688-2.38 2.25-5.06 1.63-3.75 1.62-6.25 1.35-10.3 0.0898-2.05 0.0898-2.05 2.09-5.05-0.33-0.99-0.66-1.98-1-3 0.438-2.69 0.438-2.69 1-5h-2c-1.47-5.23-2.23-9.58-2-15 0.66 0.99 1.32 1.98 2 3 0.33-1.65 0.66-3.3 1-5-0.99-0.66-1.98-1.32-3-2l-2 1v-6h2v-2c0.66-0.33 1.32-0.66 2-1l-3-3h2c0.619-0.712 0.619-0.712 1.25-1.44 2.48-2.22 4.47-2.36 7.75-2.56 2.38 0.938 2.38 0.938 4 2 0.144-1.3 0.289-2.6 0.438-3.94 0.438-3.94 0.438-3.94 1.56-5.06z" fill="#00643C"/>
<path transform="translate(718,1027)" d="m0 0c3.23-0.249 5.92-0.0739 9 1 5.93 5.82 8.65 12.7 9.31 20.9-0.36 9.86-5.41 16.6-11.3 24.1-0.501 0.752-1 1.5-1.52 2.28-1.48 1.72-1.48 1.72-5.17 2.47-1.09 0.0825-2.19 0.165-3.31 0.25-0.33-0.66-0.66-1.32-1-2h4v-2h3v-2c-1.63 0.114-3.25 0.242-4.88 0.375-0.905 0.0696-1.81 0.139-2.74 0.211-2.56 0.21-2.56 0.21-4.38 2.41-2.57 0.285-5.05 0.466-7.62 0.562-4.45 0.204-8.79 0.421-13.2 1.19-3.19 0.25-3.19 0.25-5.19-1.19-0.33-0.516-0.66-1.03-1-1.56-0.99 0.66-1.98 1.32-3 2-0.0809-2.6-0.14-5.21-0.188-7.81-0.0251-0.738-0.0503-1.48-0.0762-2.24-0.0748-5.51-0.0748-5.51 1.64-7.74 0.535-0.398 1.07-0.797 1.62-1.21 2.09-3.17 3.8-6.39 5-10h2c0.247-0.536 0.495-1.07 0.75-1.62 1.55-2.94 3.4-5.62 5.25-8.38 0.33-0.66 0.66-1.32 1-2 6.36-4.49 12.5-5.13 20-5 0.66-0.33 1.32-0.66 2-1v-2z" fill="#6E7172"/>
<path transform="translate(1184,403)" d="m0 0c3.3 3.86 5.2 8.37 7.31 12.9 0.365 0.779 0.731 1.56 1.11 2.36 0.774 1.65 1.54 3.31 2.31 4.96 0.9 1.94 1.81 3.87 2.73 5.8 3.57 7.58 6.68 15.2 9.55 23.1 0.429 1.17 0.857 2.34 1.3 3.55 9.86 27.1 9.86 27.1 11.2 36.5 0.472 2.79 1.13 5.46 1.85 8.19 1.71 6.73 2.98 13.5 4.17 20.4 0.218 1.24 0.435 2.47 0.659 3.75 1.47 8.46 2.82 16.9 3.78 25.4 0.0888 0.767 0.178 1.53 0.269 2.32 0.292 2.54 0.576 5.08 0.856 7.61 0.132 1.17 0.132 1.17 0.266 2.37 0.395 3.73 0.647 7.38 0.601 11.1-0.257 3.4-0.257 3.4 1.01 5.56 0.0951 1.58 0.128 3.16 0.129 4.74 0.00315 0.985 0.0063 1.97 0.00955 2.98-0.00202 1.07-0.00405 2.14-0.00613 3.24 9.57e-4 1.1 0.00191 2.19 0.0029 3.32 6.82e-4 2.32-0.00117 4.64-0.00534 6.96-0.00533 3.55-6.21e-5 7.1 0.00635 10.6-6.61e-4 2.25-0.00194 4.51-0.00391 6.76 0.00202 1.06 0.00405 2.12 0.00613 3.22-0.00473 1.49-0.00473 1.49-0.00955 3.01-7.96e-4 0.871-0.00159 1.74-0.00241 2.64-0.132 2.58-0.603 4.96-1.13 7.49 0.0206 0.908 0.0412 1.82 0.0625 2.75-0.0542 2.82-0.398 4.92-1.06 7.62-0.868 3.61-1.05 6.84-0.946 10.6-0.0594 2.26-0.437 4.26-0.921 6.46-1.33 6.37-2.29 12.8-3.26 19.2-0.182 1.19-0.364 2.39-0.551 3.62-0.443 2.92-0.885 5.84-1.32 8.75-1.83-3.13-2.24-5.38-2.2-8.98 0.00645-0.935 0.0129-1.87 0.0195-2.83 0.0168-0.968 0.0335-1.94 0.0508-2.93 0.00902-0.984 0.018-1.97 0.0273-2.98 0.0235-2.42 0.0564-4.85 0.0977-7.27h-1v-14h2c0.33 1.98 0.66 3.96 1 6 0.133-0.927 0.266-1.85 0.402-2.81 0.177-1.2 0.353-2.4 0.535-3.63 0.174-1.19 0.348-2.39 0.527-3.62 0.535-2.94 0.535-2.94 1.54-3.94 0.0863-1.34 0.107-2.69 0.0977-4.04-0.00322-0.809-0.00645-1.62-0.00977-2.45-0.0126-1.28-0.0126-1.28-0.0254-2.58-0.00451-0.854-0.00902-1.71-0.0137-2.59-0.0118-2.12-0.0298-4.23-0.0488-6.35-0.639 0.186-1.28 0.371-1.94 0.562-1.02 0.217-1.02 0.217-2.06 0.438-2.69-2.69-1.89-9.34-2.01-13 0.0247-3.99 0.677-7.91 1.25-11.9 1.07-8.14 0.894-16.3 0.778-24.5-0.0135-1.07-0.0269-2.15-0.0408-3.25-0.0269-1.44-0.0269-1.44-0.0544-2.91 0.0757-2.38 0.461-4.29 1.08-6.57 0.124-2.51 0.19-4.99 0.188-7.5 6.45e-4 -0.729 0.00129-1.46 0.00195-2.21-0.0848-9.15-1.14-18.2-2.19-27.3h-2v5c-2.43-3.64-2.16-5.71-2-10-0.66 1.98-1.32 3.96-2 6-4.6-6.89-5.33-14.3-4.88-22.4 0.0339-0.686 0.0678-1.37 0.103-2.08 0.348-4.44 0.962-5.74 3.77-9.48 0.33 3.3 0.66 6.6 1 10 0.0412-1.55 0.0825-3.09 0.125-4.69 0.0232-0.87 0.0464-1.74 0.0703-2.64-0.214-2.93-1.09-4.97-2.2-7.68-0.309-2.54-0.309-2.54-0.438-5.19-0.521-6.64-1.39-13.2-5.75-18.4-0.598-0.454-1.2-0.908-1.81-1.38l-2 2c-1.76-3.09-2-4.23-2-8h-2c-0.0743-3.34-0.0655-5.8 1-9-0.33-0.66-0.66-1.32-1-2-0.99 0.495-0.99 0.495-2 1-4.35-6.92-6.81-11.8-6-20h2v-4c-0.99-0.33-1.98-0.66-3-1-0.809-1.75-0.809-1.75-1.44-4-1.02-3.41-2.22-6.54-3.75-9.75-1.49-3.23-2.28-5.64-1.81-9.25z" fill="#00613A"/>
<path transform="translate(916,195)" d="m0 0v2c-2.29 0.168-4.58 0.334-6.88 0.5-1.28 0.0928-2.55 0.186-3.87 0.281-1.75 0.118-3.5 0.219-5.26 0.219-1.07 0.33-2.14 0.66-3.25 1-8.3 2.12-17.7 2.06-25.8-1 0.639-0.309 1.28-0.619 1.94-0.938 2-0.897 2-0.897 3.06-2.06-5.05-2.1-9.9-2.42-15.3-2.75-2.71-0.246-2.71-0.246-5.71-1.25-2.39-0.0697-4.79-0.0845-7.19-0.0625-1.27 0.00902-2.54 0.018-3.86 0.0273-0.976 0.0116-1.95 0.0232-2.96 0.0352 0.495 1.49 0.495 1.49 1 3-18.7 2.54-37.1 3.15-56 3v-2c-0.559-0.049-1.12-0.098-1.7-0.148-5.06-0.471-10-1.12-15.1-1.91-8.77-1.28-17.5-1.77-26.2 0.0625-2.33 0.0382-4.67 0.0457-7 0v-2c16.9-3.07 33.9-4.6 51-6 0.907-0.0749 1.81-0.15 2.75-0.227 41.7-3.27 86.1-1.71 126 10.2z" fill="#035B35"/>
<path transform="translate(1192,1153)" d="m0 0c0.681 0.474 1.36 0.949 2.06 1.44 2.92 1.78 2.92 1.78 6.56 2 3.38 0.562 3.38 0.562 5.31 2.31 1.23 2.6 1.3 4.4 1.06 7.25 1.2 0.0825 2.39 0.165 3.62 0.25 4.34 0.524 6.75 2.31 10.4 4.75 2.3 0.621 4.61 1.06 6.95 1.51 2.6 0.623 4.2 1.56 6.05 3.49 0.495 1.48 0.495 1.48 1 3 0.66 0.33 1.32 0.66 2 1v5h2v7c-0.699 0.049-1.4 0.098-2.12 0.148-0.91 0.0748-1.82 0.15-2.76 0.227-0.905 0.0696-1.81 0.139-2.74 0.211-2.56 0.21-2.56 0.21-4.38 2.41-2.62 0.125-2.62 0.125-5 0v-2h-6v-2h-5c-0.227-1.28-0.454-2.56-0.688-3.88-0.474-2.19-0.474-2.19-1.31-4.12-2.48-1.6-2.48-1.6-5-2v-2h-5v-3c-1.65-0.33-3.3-0.66-5-1-0.33-1.32-0.66-2.64-1-4h-2c-2.32-3.25-3.44-6.06-4-10 1.48 0.99 1.48 0.99 3 2 0.66-0.99 1.32-1.98 2-3-0.294-1.34-0.628-2.68-1-4 0.33-0.99 0.66-1.98 1-3z" fill="#6D7071"/>
<path transform="translate(560,785)" d="m0 0h2v2h2c0.474 0.66 0.949 1.32 1.44 2 0.773 0.99 0.773 0.99 1.56 2h3c2.12 0.312 2.12 0.312 4 1 0.33 0.99 0.66 1.98 1 3l2 2c0.33 0.99 0.66 1.98 1 3h3v7h2v2c1.32 0.33 2.64 0.66 4 1v2c3.59 1.87 7.28 3.43 11 5v3c0.888 0.203 0.888 0.203 1.79 0.41 5.29 1.44 8.54 2.98 11.5 7.7 0.707 1.89 0.707 1.89 0.145 5.39-0.777 3.37-0.777 3.37 0.707 5.5 1.54 1.86 2.95 3.51 4.86 5h3l1-2c5.04 0.56 7.53 4.24 10.6 7.93 5.09 6.45 5.09 6.45 5.38 11.1-5.16-1.92-8.26-3.8-12-8 0.573 2.87 0.861 3.86 3 6v3h2v2h2c-0.33 0.66-0.66 1.32-1 2-3.98 0-5.09-1.38-8-4-0.536-0.743-1.07-1.49-1.62-2.25-0.681-0.866-0.681-0.866-1.38-1.75h-3v-2h-3c-1.38-2.06-1.38-2.06-3-5-0.838-1.24-1.69-2.47-2.56-3.69-0.414-0.581-0.828-1.16-1.25-1.76-1.65-2.16-2.74-3.41-5.37-4.24-4.03-1.88-7.09-4.8-9.81-8.31v-3c-1.25-1.75-1.25-1.75-3-3h-3c-2.43-2.01-4.35-4.32-6-7 0.125-2.94 0.125-2.94 1-5 0.33 0.66 0.66 1.32 1 2h2v2h2c0.247 0.784 0.495 1.57 0.75 2.38 1.4 2.95 2.26 3.53 5.25 4.62v2h2c0.66 0.99 1.32 1.98 2 3h4v-2h-2c-1.48-1.5-1.48-1.5-3.19-3.56-2.37-2.8-4.79-5.45-7.44-8-2.3-2.24-4.09-4.42-5.81-7.12-2.34-3.48-4.95-4.74-8.71-6.44-6.09-2.86-8.14-9.12-10.9-14.9-0.663-1.34-1.33-2.67-2-4z" fill="#00643C"/>
<path transform="translate(576 410)" d="m0 0c0.949 0.0412 1.9 0.0825 2.88 0.125-0.66 0.99-1.32 1.98-2 3 0.66 0.33 1.32 0.66 2 1-1.63 3.58-3.78 6.62-6.06 9.81-7.63 10.9-14.1 22.4-20.7 34-0.543 0.954-1.09 1.91-1.65 2.89-3.39 6.01-6.58 12.1-9.6 18.3h-2c-0.495-2.48-0.495-2.48-1-5l-3 3c-2.29-6.87 1.81-15 4.88-21.2 1.03-1.94 2.07-3.88 3.12-5.81 0.449-0.851 0.897-1.7 1.36-2.58 2.23-4.16 4.6-7.79 7.64-11.4 1.05-1.61 1.05-1.61 2.12-3.25 1.88-2.75 1.88-2.75 3.88-3.75 0.752-1.52 1.45-3.07 2.12-4.62 2.65-5.52 6.11-8.67 10.9-12.4 2-2 2-2 5.12-2.12z" fill="#035B35"/>
<path transform="translate(1175,792)" d="m0 0h3c1.69 2 1.69 2 3 4 0.99-0.33 1.98-0.66 3-1-0.567 4.15-1.93 6.79-4.25 10.2-2.79 4.21-5.26 8.45-7.51 13-1.48 2.13-2.86 2.81-5.24 3.78v-5c-0.66 0.33-1.32 0.66-2 1-0.652 2.02-0.652 2.02-1 4-2-1-2-1-3.81-2.12-2.77-1.11-4.37-0.659-7.19 0.125v-2c-1.11 1.02-1.11 1.02-2.25 2.06-2.75 1.94-2.75 1.94-5.06 1.69-0.557-0.247-1.11-0.495-1.69-0.75 0.99-0.33 1.98-0.66 3-1 3.02-2.63 4.87-4.72 6.56-8.38 2.88-5.46 9.04-8.13 14.4-10.6h3c0.144-0.619 0.289-1.24 0.438-1.88 0.562-2.12 0.562-2.12 1.56-4.12h2v-3z" fill="#00623B"/>
<path transform="translate(1142,340)" d="m0 0c3.2 1.07 3.66 1.5 5.57 4.07 0.721 0.962 0.721 0.962 1.46 1.94 0.508 0.697 1.02 1.39 1.54 2.11 0.532 0.721 1.06 1.44 1.61 2.18 7.33 10 14.1 20.3 20.5 30.9 0.447 0.728 0.894 1.46 1.35 2.2 1.07 1.8 2.02 3.67 2.96 5.55-0.33 0.99-0.66 1.98-1 3v2c0.66 0.66 1.32 1.32 2 2-0.99 0.66-1.98 1.32-3 2-0.66-0.66-1.32-1.32-2-2-0.66-0.268-1.32-0.536-2-0.812-2.68-1.59-3.08-3.28-4-6.19h-2c-1.69-2.38-1.69-2.38-3-5 0.33-0.66 0.66-1.32 1-2 0.224-2.93 0.224-2.93-1-5-1-2-1-2-1-5-0.578-0.248-1.15-0.495-1.75-0.75-2.55-1.42-4.27-3.13-6.25-5.25-0.99 0.66-1.98 1.32-3 2-0.651-1.25-1.3-2.5-1.94-3.75-0.539-1.04-0.539-1.04-1.09-2.11-0.928-2.04-1.5-3.95-1.97-6.14h6c-2.56-4.55-5.23-9-8.05-13.4-0.953-1.6-0.953-1.6-0.953-2.6z" fill="#00623B"/>
<path transform="translate(937,1452)" d="m0 0v2c0.99-0.33 1.98-0.66 3-1-1.32 2.89-2.75 5.03-4.94 7.32-0.869 0.919-0.869 0.919-1.76 1.86-0.615 0.643-1.23 1.29-1.86 1.95-1.27 1.35-2.54 2.69-3.81 4.04-0.62 0.655-1.24 1.31-1.88 1.99-7.23 7.59-7.23 7.59-13.6 15.9-2.3 3.09-2.66 3.34-6.19 3.94v-2h2v-2h-2c-0.33-1.98-0.66-3.96-1-6h2c0.495-4.45 0.495-4.45 1-9h2v-2c0.99-0.33 1.98-0.66 3-1 0.33-0.99 0.66-1.98 1-3h2v-2c2.97-0.66 5.94-1.32 9-2 0.33-1.32 0.66-2.64 1-4 3.47-0.495 3.47-0.495 7-1-0.66-1.32-1.32-2.64-2-4 3-1 3-1 6 0z" fill="#6E7172"/>
<path transform="translate(560,785)" d="m0 0h2v2h2c0.474 0.66 0.949 1.32 1.44 2 0.773 0.99 0.773 0.99 1.56 2h3c2.12 0.312 2.12 0.312 4 1 0.33 0.99 0.66 1.98 1 3l2 2c0.33 0.99 0.66 1.98 1 3h3v7h2v2c1.32 0.33 2.64 0.66 4 1v2c3.59 1.87 7.28 3.43 11 5v3c0.888 0.203 0.888 0.203 1.79 0.41 5.26 1.43 8.6 2.97 11.5 7.67 1.15 3.31-0.00981 5.82-1.34 8.92-0.554-0.373-1.11-0.745-1.68-1.13-0.724-0.473-1.45-0.946-2.2-1.43-0.719-0.476-1.44-0.951-2.18-1.44-0.642-0.329-1.28-0.657-1.95-0.996l-2 1-2-2h2v-2h-2c-1.48-1.5-1.48-1.5-3.19-3.56-2.37-2.8-4.79-5.45-7.44-8-2.3-2.24-4.09-4.42-5.81-7.12-2.34-3.48-4.95-4.74-8.71-6.44-6.09-2.86-8.14-9.12-10.9-14.9-0.663-1.34-1.33-2.67-2-4z" fill="#00613A"/>
<path transform="translate(526,724)" d="m0 0h2c0.387 0.831 0.773 1.66 1.17 2.52 0.521 1.09 1.04 2.17 1.58 3.29 0.51 1.08 1.02 2.16 1.55 3.27 1.7 2.9 3.04 4 5.7 5.92 0.528 1.91 1.04 3.83 1.46 5.77 1.83 7.52 6.14 14.1 10.2 20.6 1.39 2.6 1.39 2.6 1.39 5.6-0.99-0.66-1.98-1.32-3-2v-2c-0.742-0.206-1.49-0.413-2.25-0.625-3.54-1.77-4.77-4.01-6.75-7.38v4c0.66 0.33 1.32 0.66 2 1v2c0.66 0.99 1.32 1.98 2 3-3.84-1.46-5.31-3.28-7-7-0.188-3.31-0.188-3.31 0-6-1.49 0.495-1.49 0.495-3 1-3.13-6.4-5.63-12.6-7.38-19.5-0.73-2.87-1.64-5.66-2.62-8.46 0.66-0.33 1.32-0.66 2-1 0.33 0.66 0.66 1.32 1 2v-6z" fill="#00623B"/>
<path transform="translate(909,309)" d="m0 0c5.05 0.495 9.97 1.33 14.9 2.38 1.12 0.235 2.25 0.469 3.4 0.711 0.878 0.302 1.76 0.603 2.66 0.914 0.33 0.99 0.66 1.98 1 3 1.77 0.665 1.77 0.665 3.94 0.938 12.1 2.41 22.5 8.99 33.1 15.1v2l4-2c-0.495-1.49-0.495-1.49-1-3 6.75-0.125 6.75-0.125 9 1-0.33 0.66-0.66 1.32-1 2-1.49-0.495-1.49-0.495-3-1v2c4.43 1.45 4.43 1.45 9 2-0.278 0.866-0.278 0.866-0.562 1.75-0.503 2.59-0.322 3.78 0.562 6.25 1.61 1.97 1.61 1.97 3.56 3.75 0.641 0.614 1.28 1.23 1.94 1.86 0.741 0.688 0.741 0.688 1.5 1.39-3.28 0-3.96-0.397-6.59-2.16-0.696-0.46-1.39-0.921-2.11-1.4-0.739-0.497-1.48-0.995-2.24-1.51-1.55-1.02-3.1-2.04-4.65-3.05-0.758-0.497-1.52-0.995-2.3-1.51-14.1-9.17-29.3-16.1-44.7-22.8-0.613-0.265-1.23-0.53-1.86-0.803-1.78-0.766-3.56-1.52-5.34-2.28-1.03-0.441-2.07-0.883-3.14-1.34-3.34-1.29-6.65-2.27-10.1-3.2v-1z" fill="#035B35"/>
<path transform="translate(1110,519)" d="m0 0c0.99 0.33 1.98 0.66 3 1 3.48 8.56 4.81 17.9 6 27 0.278 1.73 0.278 1.73 0.562 3.5 0.562 4.49 0.859 8.99 1.16 13.5 0.186 2.83 0.186 2.83 0.779 4.9 0.524 2.17 0.707 4.18 0.819 6.41 0.0628 1.2 0.0628 1.2 0.127 2.42 0.0393 0.825 0.0786 1.65 0.119 2.5 0.0432 0.84 0.0864 1.68 0.131 2.55 0.106 2.07 0.207 4.14 0.307 6.2-1.32-0.33-2.64-0.66-4-1-0.952-4.18-1.32-8.33-1.61-12.6-0.112-1.51-0.225-3.02-0.338-4.54-0.0586-0.786-0.117-1.57-0.178-2.38-1.06-14-2.53-27.7-5.46-41.5-0.548-2.65-0.989-5.31-1.41-7.98z" fill="#035B35"/>
<path transform="translate(486,822)" d="m0 0c3.79 0.541 5.55 2.12 8 5v2c2.64-0.33 5.28-0.66 8-1 2.83 3.2 3.52 5.78 4 10 0.99 0.33 1.98 0.66 3 1 1.32 4.96 1.09 9.91 1 15-0.33-0.99-0.66-1.98-1-3-0.99-0.33-1.98-0.66-3-1-1.39-1.96-2.71-3.97-4-6-2.37-3.15-4.77-6.27-7.17-9.39-1.83-2.61-1.83-2.61-1.83-4.61h-2c-2-3-2-3-2-6-0.99-0.33-1.98-0.66-3-1v-1z" fill="#00623B"/>
<path transform="translate(1120,587)" d="m0 0c0.33 0.66 0.66 1.32 1 2 0.99 0.33 1.98 0.66 3 1 3.66 15.7 3.66 15.7 1 21h-2c-0.33-0.66-0.66-1.32-1-2 0 1.73 0.0148 3.46 0.0703 5.19 0.018 0.782 0.0361 1.56 0.0547 2.37 0.0232 0.785 0.0464 1.57 0.0703 2.38-0.195 2.06-0.195 2.06-2.2 4.06v-2h-2v-33c0.66-0.33 1.32-0.66 2-1z" fill="#6E7172"/>
<path transform="translate(423,480)" d="m0 0c0.227 6.14-0.136 12.1-2 18-0.66 0.33-1.32 0.66-2 1-0.883 2.63-0.883 2.63-1.56 5.75-0.249 1.05-0.498 2.09-0.754 3.17-0.417 1.88-0.807 3.76-1.15 5.66-0.535 2.42-0.535 2.42-1.54 4.82-1.58 4.12-1.88 8.39-2.44 12.7-0.562 2.86-0.562 2.86-2.56 4.86-0.281-7.61 0.397-14.5 2.12-21.9 0.221-0.977 0.442-1.95 0.669-2.96 1.63-7.06 3.44-14.1 5.39-21 0.25-0.903 0.499-1.81 0.756-2.74 0.239-0.826 0.478-1.65 0.724-2.5 0.209-0.728 0.418-1.46 0.634-2.21 0.787-1.89 1.53-2.68 3.7-2.68z" fill="#035B35"/>
<path transform="translate(551,885)" d="m0 0c2.64 0.66 5.28 1.32 8 2v2c2.31 0.66 4.62 1.32 7 2 0.33 1.65 0.66 3.3 1 5h2c0.247 0.784 0.495 1.57 0.75 2.38 0.977 2.74 0.977 2.74 3.25 3.62 2 1 2 1 3.25 3.62 0.247 0.784 0.495 1.57 0.75 2.38-1.09-0.165-2.19-0.33-3.31-0.5-3.56-0.567-3.56-0.567-6.69-0.5-2.19-1.5-2.19-1.5-4-3 0.33-0.66 0.66-1.32 1-2-0.33-0.33-0.66-0.66-1-1-0.0206-0.722-0.0412-1.44-0.0625-2.19-1.29-3.87-3.63-5.13-6.93-7.38-1.9-1.35-3.49-2.66-5.01-4.43v-2z" fill="#00613A"/>
<path transform="translate(1134,812)" d="m0 0c0.66 0.33 1.32 0.66 2 1-0.99 0.33-1.98 0.66-3 1-0.0825 1.28-0.165 2.56-0.25 3.88-0.27 2.23-0.27 2.23-0.75 4.12-1.94 1.12-1.94 1.12-4 2-0.33 0.99-0.66 1.98-1 3-1 3-1 3-2.94 4.38-2.06 0.625-2.06 0.625-5.06 0.625v2h-2c-0.33-0.99-0.66-1.98-1-3 0.99-1.49 0.99-1.49 2-3 0.217-1.52 0.217-1.52 0.438-3.06 0.278-1.45 0.278-1.45 0.562-2.94 0.99-0.66 1.98-1.32 3-2 0.736-3.57 0.736-3.57 1-7l5.96 0.0977c2.25-0.015 2.25-0.015 5.04-1.1z" fill="#01653C"/>
<path transform="translate(1153,533)" d="m0 0h4v4h4v4h4v5h-4v4h-4c-0.33 0.66-0.66 1.32-1 2-1.8-2.76-2.01-3.89-1.62-7.25 0.206-0.908 0.412-1.82 0.625-2.75h-2c-0.879-6.15-0.879-6.15-1-8 0.33-0.33 0.66-0.66 1-1z" fill="#01653C"/>
<path transform="translate(621,842)" d="m0 0c4.28 0.305 6.26 2.93 9 6 6.69 8 6.69 8 7 13-8.24-3.03-13.7-8.09-19-15v-1c1.32-0.33 2.64-0.66 4-1-0.66-0.33-1.32-0.66-2-1l1-1z" fill="#00623B"/>
<path transform="translate(1021,962)" d="m0 0c-28.5 15.1-28.5 15.1-42 20-0.889 0.397-1.78 0.794-2.7 1.2-2.3 0.797-2.3 0.797-5.3-0.203 0.543-0.266 1.09-0.531 1.64-0.805 0.715-0.353 1.43-0.706 2.17-1.07 0.708-0.348 1.42-0.696 2.14-1.05 2.26-1.14 2.26-1.14 5.04-3.07 0.949-0.309 1.9-0.619 2.88-0.938 3.14-0.939 3.14-0.939 5.75-2.69 2.38-1.38 2.38-1.38 6.38-1.38v-2c0.606-0.231 1.21-0.461 1.84-0.699 5.53-2.15 10.7-4.56 15.9-7.45 2.61-1 3.62-0.632 6.23 0.145z" fill="#045B35"/>
<path transform="translate(772,930)" d="m0 0h1c0.0619 0.949 0.124 1.9 0.188 2.88 0.268 1.03 0.536 2.06 0.812 3.12 1.65 0.702 3.32 1.37 5 2 1.22 3.3 1.1 5.69 0 9h1v10c-0.99 0.33-1.98 0.66-3 1 0.33 2.31 0.66 4.62 1 7h-3c-0.949-4.84-0.99-7.52 1-12-0.33-0.99-0.66-1.98-1-3 0.438-2.69 0.438-2.69 1-5h-2c-1.47-5.23-2.23-9.58-2-15z" fill="#00653D"/>
<path transform="translate(903,270)" d="m0 0c2.48 0.99 2.48 0.99 5 2v-2c5.94 1.49 5.94 1.49 12 3v3c3.3 0.99 6.6 1.98 10 3v1c-2.38-0.115-4.75-0.242-7.12-0.375-0.998-0.0464-0.998-0.0464-2.02-0.0938-4.26-0.25-7.88-1.01-11.9-2.53v-2c-0.619-0.309-1.24-0.619-1.88-0.938l-4.12-2.06v-2z" fill="#01653C"/>
<path transform="translate(832,294)" d="m0 0c-2.74 2.74-4.33 2.28-8.16 2.34-1.26 0.0284-2.52 0.0569-3.82 0.0862-1 0.0169-1 0.0169-2.02 0.0342-10.6 0.185-21.1 0.616-31.6 2.13-3.48 0.418-6.85 0.469-10.3 0.402 3.68-2.26 7.5-2.63 11.7-3.11 0.755-0.0883 1.51-0.177 2.29-0.268 1.6-0.185 3.21-0.365 4.81-0.542 2.4-0.267 4.79-0.557 7.19-0.849 10.2-1.17 19.8-1.25 30-0.236z" fill="#045B35"/>
<path transform="translate(818,231)" d="m0 0v3c-1.22 0.433-2.43 0.866-3.69 1.31-2.58 0.949-4.51 1.82-6.81 3.38-3.61 1.9-6.45 1.52-10.5 1.31 0.33-0.99 0.66-1.98 1-3h7v-4c4.78-2.91 7.55-3.2 13-2z" fill="#01653C"/>
<path transform="translate(744 1e3)" d="m0 0h3v3h2c0.33-0.99 0.66-1.98 1-3v5h8v3c2.97 0.66 5.94 1.32 9 2v1c-1.73-0.142-3.46-0.289-5.19-0.438-1.44-0.122-1.44-0.122-2.92-0.246-2.68-0.293-5.26-0.743-7.89-1.32v-2c-3.63-0.99-7.26-1.98-11-3 0.99-0.33 1.98-0.66 3-1 0.33-0.99 0.66-1.98 1-3z" fill="#00613A"/>
<path transform="translate(431,449)" d="m0 0c0.99 0.33 1.98 0.66 3 1 0.578 4.91-1.32 7.01-4 11-0.887 2.27-1.62 4.55-2.34 6.88-0.756 2.43-1.68 4.78-2.66 7.12h-1c-0.481-6.33 1.19-11.1 3.5-16.9 0.334-0.875 0.668-1.75 1.01-2.65 0.819-2.14 1.65-4.28 2.49-6.41z" fill="#025D36"/>
<path transform="translate(1148,413)" d="m0 0c3.3 0.33 6.6 0.66 10 1 0.33 0.99 0.66 1.98 1 3h-2v7c-2.31-0.188-2.31-0.188-5-1-2.46-3.17-3.44-6.05-4-10z" fill="#01653C"/>
<path transform="translate(499,336)" d="m0 0c0.33 0.66 0.66 1.32 1 2-4.1 6.57-8.72 12.3-14 18-1-2-1-2 0-5.12 2.79-6.13 7.56-11 13-14.9z" fill="#035C35"/>
<path transform="translate(540,847)" d="m0 0h6v2h2c0.0425 2 0.0408 4 0 6-1 1-1 1-4 1.12-3-0.125-3-0.125-4-1.12-0.141-2.67-0.0425-5.32 0-8z" fill="#00653E"/>
<path transform="translate(998,225)" d="m0 0c5 1.48 9.33 3.63 13.9 6.12 0.688 0.373 1.38 0.745 2.09 1.13 1.68 0.911 3.36 1.83 5.04 2.75v2h-5c-0.33-0.66-0.66-1.32-1-2-1.91-0.803-1.91-0.803-4.19-1.44-3.82-1.2-7.28-2.66-10.8-4.56v-4z" fill="#035B35"/>
<path transform="translate(1220,539)" d="m0 0h1c0.365 4.08 0.715 8.17 1.06 12.2 0.104 1.16 0.208 2.32 0.314 3.51 0.0935 1.12 0.187 2.23 0.283 3.38 0.089 1.03 0.178 2.05 0.27 3.11 0.0646 2.54-0.178 4.35-0.93 6.75-0.186 0.742-0.371 1.49-0.562 2.25l-0.438 1.75c-4.12-8.23-2.98-24.2-1-33z" fill="#00623B"/>
<path transform="translate(788,904)" d="m0 0c2.47 3.7 2.24 5.66 2.19 10.1-0.00645 1.25-0.0129 2.5-0.0195 3.79-0.168 3.15-0.168 3.15-1.17 5.15-0.225 1.54-0.408 3.08-0.562 4.62-0.0838 0.817-0.168 1.63-0.254 2.48-0.0606 0.626-0.121 1.25-0.184 1.9h-1c-0.0289-4.48-0.0468-8.96-0.0625-13.4-0.00838-1.28-0.0168-2.56-0.0254-3.88-0.00322-1.21-0.00645-2.43-0.00977-3.68-0.00524-1.13-0.0105-2.25-0.0159-3.41 0.114-2.59 0.114-2.59 1.11-3.59z" fill="#1A684A"/>
<path transform="translate(1173,780)" d="m0 0c0.66 0.33 1.32 0.66 2 1-0.312 1.88-0.312 1.88-1 4-0.99 0.66-1.98 1.32-3 2-0.33 0.99-0.66 1.98-1 3h-2c-0.433 0.928-0.433 0.928-0.875 1.88-1.12 2.12-1.12 2.12-3.12 4.12-2.62 0.125-2.62 0.125-5 0v-2c1.65-0.33 3.3-0.66 5-1 0.433-1.42 0.433-1.42 0.875-2.88 1.12-3.12 1.12-3.12 3.12-5.12h3v-4c0.66-0.33 1.32-0.66 2-1z" fill="#01653C"/>
<path transform="translate(918,212)" d="m0 0c8.13-0.663 17.7 1.33 25 5-0.33 0.66-0.66 1.32-1 2-7.92-1.65-15.8-3.3-24-5v-2z" fill="#00653E"/>
<path transform="translate(729,294)" d="m0 0c-0.625 1.94-0.625 1.94-2 4-2.69 0.688-2.69 0.688-6 1-1.09 0.186-2.19 0.371-3.31 0.562-4.26 0.505-8.41 0.525-12.7 0.438 5.17-3.45 9.92-4 16-4 6.5-2 6.5-2 8-2z" fill="#00653D"/>
<path transform="translate(906,278)" d="m0 0c6.61 0.49 11.9 2.33 18 5-2.58 1.71-3.68 2.05-6.8 1.54-0.975-0.302-1.95-0.603-2.95-0.914-0.985-0.296-1.97-0.593-2.98-0.898-0.748-0.24-1.5-0.48-2.27-0.727v-2c-0.99-0.33-1.98-0.66-3-1v-1z" fill="#01653C"/>
<path transform="translate(1124,599)" d="m0 0c0.66 0.33 1.32 0.66 2 1 0.027 1.46 0.0464 2.92 0.0625 4.38 0.0116 0.812 0.0232 1.62 0.0352 2.46-0.0977 2.16-0.0977 2.16-1.1 4.16h-2c-0.33-0.66-0.66-1.32-1-2-0.66 0.66-1.32 1.32-2 2-0.504-5.29 0.811-7.81 4-12z" fill="#FBFDFD"/>
<path transform="translate(617,878)" d="m0 0h14c0.33 1.32 0.66 2.64 1 4-5.44 0.218-9.87 0.104-15-2v-2z" fill="#00653E"/>
<path transform="translate(882,283)" d="m0 0c7.74-0.53 14.1 0.133 21 4 0.33 0.66 0.66 1.32 1 2-7.48-1.23-14.7-2.89-22-5v-1z" fill="#00623B"/>
<path transform="translate(745 285)" d="m0 0c1.79 0.0174 1.79 0.0174 3.62 0.0352 1.8 0.0135 1.8 0.0135 3.63 0.0273 0.927 0.0116 1.85 0.0232 2.81 0.0352v2c-2.96 0.988-4.68 1.05-7.75 0.938-4.44-0.0581-8 0.73-12.2 2.06-2.94 0.125-2.94 0.125-5 0 0.33-0.66 0.66-1.32 1-2 2.25-0.598 2.25-0.598 5-1.06 3.32-0.57 5.76-1.93 8.94-2.04z" fill="#00623B"/>
<path transform="translate(1101,493)" d="m0 0c2.54 2.54 3.29 4.95 4.56 8.31 0.434 1.13 0.869 2.26 1.32 3.43 0.952 2.77 1.64 5.38 2.12 8.26h-2c-1.2-2.95-2.38-5.91-3.56-8.88-0.342-0.842-0.684-1.68-1.04-2.55-0.319-0.806-0.638-1.61-0.967-2.44-0.448-1.12-0.448-1.12-0.905-2.25-0.529-1.88-0.529-1.88 0.471-3.88z" fill="#035C36"/>
<path transform="translate(828,284)" d="m0 0c-2.78 0.787-5.23 1.12-8.11 1.1-0.754-0.00322-1.51-0.00645-2.29-0.00977-0.777-0.00838-1.55-0.0168-2.36-0.0254-0.793-0.00451-1.59-0.00902-2.4-0.0137-1.95-0.0117-3.9-0.0297-5.85-0.0488 5.23-5.23 14.7-3.63 21-1z" fill="#01653C"/>
<path transform="translate(1200,1157)" d="m0 0c2.44 0.25 2.44 0.25 5 1 2.29 3.44 2.18 4.99 2 9-1.32-0.66-2.64-1.32-4-2v-5h-5c1-2 1-2 2-3z" fill="#6E7172"/>
<path transform="translate(1118,424)" d="m0 0c0.99 0.33 1.98 0.66 3 1-0.33 1.32-0.66 2.64-1 4h3v2c0.66 0.33 1.32 0.66 2 1-2.31 0.33-4.62 0.66-7 1-1.37-2.73-1.13-4.98-1-8 0.33-0.33 0.66-0.66 1-1z" fill="#01653C"/>
<path transform="translate(1222,1284)" d="m0 0c-0.141 1.63-0.288 3.25-0.438 4.88-0.0812 0.905-0.162 1.81-0.246 2.74-0.316 2.38-0.316 2.38-1.32 4.38h-2c-0.832-3.98-1.23-7.08 0-11 2-1 2-1 4-1z" fill="#6E7172"/>
<path transform="translate(1171,559)" d="m0 0h1c0.182 0.849 0.182 0.849 0.367 1.71 0.168 0.733 0.335 1.47 0.508 2.22 0.162 0.731 0.325 1.46 0.492 2.21 0.462 2.05 0.462 2.05 2.63 2.85v4h-5v-6h-2v-2h2v-5z" fill="#01653C"/>
<path transform="translate(513,361)" d="m0 0h3c-0.787 3.41-1.87 6.69-3 10-1.32-0.33-2.64-0.66-4-1 1.75-6.75 1.75-6.75 4-9z" fill="#00623B"/>
<path transform="translate(755,189)" d="m0 0v1c-12.5 3.44-12.5 3.44-19 3v-2c6.47-1.51 12.4-2.21 19-2z" fill="#025E37"/>
<path transform="translate(1119,1400)" d="m0 0c1.58-0.0544 3.17-0.093 4.75-0.125 0.882-0.0232 1.76-0.0464 2.67-0.0703 2.72 0.206 4.18 0.997 6.58 2.2 0.99-0.33 1.98-0.66 3-1-0.33 0.99-0.66 1.98-1 3-1.92-0.236-3.84-0.473-5.76-0.719-2.06-0.258-4.12-0.49-6.18-0.719-1.01-0.186-2.02-0.371-3.06-0.562-0.33-0.66-0.66-1.32-1-2z" fill="#6F7273"/>
<path transform="translate(339,1201)" d="m0 0c0.99 0.33 1.98 0.66 3 1-0.188 3.31-0.188 3.31-1 7-2.56 1.94-2.56 1.94-5 3 0.468-4.06 0.88-7.47 3-11z" fill="#6D7071"/>
<path transform="translate(477,806)" d="m0 0h2c3.5 3.73 8 9.63 8 15h-2c-4-5.29-4-5.29-4-9h-2v-3h-2v-3z" fill="#00623B"/>
<path transform="translate(440,737)" d="m0 0c2.76 1.01 3.8 1.57 5.08 4.28 0.241 0.878 0.482 1.76 0.73 2.66 0.254 0.875 0.508 1.75 0.77 2.65 0.418 2.41 0.418 2.41-0.582 5.41-1.01-1.93-2.01-3.87-3-5.81-0.557-1.08-1.11-2.16-1.69-3.27-1.31-2.92-1.31-2.92-1.31-5.92z" fill="#00623B"/>
<path transform="translate(412,517)" d="m0 0c1.29 3.72 0.791 6.78 0.188 10.6-0.171 1.15-0.343 2.29-0.52 3.48-0.668 2.9-0.668 2.9-2.67 4.9-0.0273-1.73-0.0465-3.46-0.0625-5.19-0.0116-0.963-0.0232-1.93-0.0352-2.92 0.0928-2.75 0.477-5.22 1.1-7.89h2v-3z" fill="#025D37"/>
<path transform="translate(431,449)" d="m0 0c0.99 0.33 1.98 0.66 3 1 0.252 3.02 0.204 4.64-1.31 7.31-0.557 0.557-1.11 1.11-1.69 1.69h-3c0.61-3.56 1.58-6.68 3-10z" fill="#035B35"/>
<path transform="translate(455,401)" d="m0 0c1.21 3.64 0.667 4.33-0.938 7.69-0.38 0.808-0.761 1.62-1.15 2.45-0.3 0.615-0.601 1.23-0.91 1.86h-2c0.898-7.79 0.898-7.79 3-11 0.66-0.33 1.32-0.66 2-1z" fill="#035C36"/>
<path transform="translate(959,1107)" d="m0 0c6.3 0.332 10.9 3.67 16 7-3 1-3 1-5.38 0.109-0.866-0.449-1.73-0.897-2.62-1.36-1.3-0.657-1.3-0.657-2.62-1.33-2.17-1.3-3.7-2.55-5.38-4.42z" fill="#6D7071"/>
<path transform="translate(512,476)" d="m0 0c1.3 4.36 0.778 7.54 0 12-0.66 0.99-1.32 1.98-2 3-1.39-6.06-0.491-9.32 2-15z" fill="#00643D"/>
<path transform="translate(1161,414)" d="m0 0h2c0.33 1.98 0.66 3.96 1 6h-2v6h-2c-0.944-4.15-1.23-6.33 1-10v-2z" fill="#01653C"/>
<path transform="translate(1095,478)" d="m0 0c3.4 4.05 6 8.64 6 14h-2c-1.65-4.29-3.3-8.58-5-13 0.33-0.33 0.66-0.66 1-1z" fill="#035C36"/>
<path transform="translate(1113,424)" d="m0 0c0.99 0.33 1.98 0.66 3 1-0.33 2.31-0.66 4.62-1 7 0.66 0.33 1.32 0.66 2 1h-4c-1.37-2.73-1.13-4.98-1-8 0.33-0.33 0.66-0.66 1-1z" fill="#01653C"/>
<path transform="translate(768,1330)" d="m0 0c5.54-0.369 5.54-0.369 7.88 1.5 0.371 0.495 0.742 0.99 1.12 1.5-3.58 1.24-6.34 0.749-10 0 0.33-0.99 0.66-1.98 1-3z" fill="#6E7172"/>
<path transform="translate(534,436)" d="m0 0h4c-1.49 4.59-3.85 7.44-7 11l-2-1c0.361-0.471 0.722-0.941 1.09-1.43 0.464-0.623 0.928-1.25 1.41-1.89 0.464-0.615 0.928-1.23 1.41-1.86 1.35-1.9 1.35-1.9 1.09-4.82z" fill="#00643D"/>
<path transform="translate(810,250)" d="m0 0h11v2c-3.63 0.33-7.26 0.66-11 1v-3z" fill="#00653E"/>
</svg>
